G04 PROTEUS GERBER X2 FILE*
%TF.GenerationSoftware,Labcenter,Proteus,8.5-SP0-Build22067*%
%TF.CreationDate,2018-02-20T23:24:37+00:00*%
%TF.FileFunction,Copper,L16,Bot*%
%TF.FilePolarity,Positive*%
%TF.Part,Single*%
%FSLAX45Y45*%
%MOMM*%
G01*
%TA.AperFunction,Conductor*%
%ADD10C,0.762000*%
%ADD11C,0.254000*%
%AMDIL002*
4,1,8,
-0.762000,0.965200,-0.457200,1.270000,0.457200,1.270000,0.762000,0.965200,0.762000,-0.965200,
0.457200,-1.270000,-0.457200,-1.270000,-0.762000,-0.965200,-0.762000,0.965200,
0*%
%TA.AperFunction,ComponentPad*%
%ADD12DIL002*%
%ADD13C,1.778000*%
%ADD14R,2.032000X2.032000*%
%ADD15C,3.048000*%
%ADD16R,2.286000X2.286000*%
%ADD17C,2.286000*%
%TA.AperFunction,Profile*%
%ADD18C,0.203200*%
G36*
X-3136900Y+3449320D02*
X+6544960Y+3449320D01*
X+6544960Y+9501540D01*
X-3136900Y+9501540D01*
X-3136900Y+3449320D01*
G37*
%LPC*%
G36*
X+4485402Y+9411240D02*
X+4812480Y+9084162D01*
X+4812480Y+8359879D01*
X+4851639Y+8359879D01*
X+4851639Y+8029681D01*
X+4623041Y+8029681D01*
X+4623041Y+8359879D01*
X+4660082Y+8359879D01*
X+4660082Y+9021040D01*
X+4399961Y+9281161D01*
X+3924930Y+9281161D01*
X+4305539Y+8900552D01*
X+4305539Y+8359879D01*
X+4343639Y+8359879D01*
X+4343639Y+8029681D01*
X+4115041Y+8029681D01*
X+4115041Y+8359879D01*
X+4153141Y+8359879D01*
X+4153141Y+8837430D01*
X+3859270Y+9131301D01*
X+2936208Y+9131301D01*
X+3541141Y+8526368D01*
X+3541141Y+8359879D01*
X+3581639Y+8359879D01*
X+3581639Y+8029681D01*
X+3353041Y+8029681D01*
X+3353041Y+8359879D01*
X+3388743Y+8359879D01*
X+3388743Y+8463246D01*
X+2847688Y+9004301D01*
X+2675699Y+9004301D01*
X+3271519Y+8408481D01*
X+3271519Y+8359879D01*
X+3327639Y+8359879D01*
X+3327639Y+8029681D01*
X+3099041Y+8029681D01*
X+3099041Y+8359879D01*
X+3104601Y+8359879D01*
X+2610039Y+8854441D01*
X+1992202Y+8854441D01*
X+1446199Y+8308438D01*
X+1446199Y+4640579D01*
X+1465801Y+4640579D01*
X+1465801Y+5417473D01*
X+1466048Y+5417720D01*
X+1466048Y+5493222D01*
X+1583801Y+5610975D01*
X+1583801Y+6869243D01*
X+1628437Y+6913879D01*
X+1974315Y+6913879D01*
X+2001521Y+6941085D01*
X+2001521Y+7012302D01*
X+2121141Y+7131922D01*
X+2121141Y+7158285D01*
X+2065885Y+7103029D01*
X+1960675Y+7103029D01*
X+1886281Y+7177423D01*
X+1886281Y+7249267D01*
X+1610361Y+7525187D01*
X+1610361Y+8451661D01*
X+1985199Y+8826499D01*
X+2601410Y+8826499D01*
X+3022229Y+8405680D01*
X+3022229Y+8359879D01*
X+3073639Y+8359879D01*
X+3073639Y+8029681D01*
X+2918932Y+8029681D01*
X+3483173Y+7465440D01*
X+5841808Y+7465440D01*
X+5863833Y+7444644D01*
X+6027668Y+7289947D01*
X+6040119Y+7261065D01*
X+6040119Y+5209639D01*
X+5822139Y+4991659D01*
X+5822139Y+4820021D01*
X+5593541Y+4820021D01*
X+5593541Y+5150219D01*
X+5765179Y+5150219D01*
X+5887721Y+5272761D01*
X+5887721Y+7212492D01*
X+5781231Y+7313042D01*
X+3420051Y+7313042D01*
X+2711173Y+8021920D01*
X+2706667Y+8029681D01*
X+2591041Y+8029681D01*
X+2591041Y+8359879D01*
X+2819639Y+8359879D01*
X+2819639Y+8146792D01*
X+2836016Y+8112597D01*
X+2845041Y+8103572D01*
X+2845041Y+8359879D01*
X+2852510Y+8359879D01*
X+2538288Y+8674101D01*
X+2048321Y+8674101D01*
X+1762759Y+8388539D01*
X+1762759Y+7588309D01*
X+1994041Y+7357027D01*
X+2065885Y+7357027D01*
X+2121141Y+7301771D01*
X+2121141Y+8029681D01*
X+2083041Y+8029681D01*
X+2083041Y+8359879D01*
X+2311639Y+8359879D01*
X+2311639Y+8029681D01*
X+2273539Y+8029681D01*
X+2273539Y+7068796D01*
X+2153919Y+6949176D01*
X+2153919Y+6941085D01*
X+2204719Y+6890285D01*
X+2204719Y+6785075D01*
X+2130325Y+6710681D01*
X+2025115Y+6710681D01*
X+1974315Y+6761481D01*
X+1736199Y+6761481D01*
X+1736199Y+5547849D01*
X+1618446Y+5430096D01*
X+1618446Y+5354406D01*
X+1618199Y+5354159D01*
X+1618199Y+4640579D01*
X+1656299Y+4640579D01*
X+1656299Y+4310381D01*
X+1446199Y+4310381D01*
X+1446199Y+4276354D01*
X+3152287Y+4279834D01*
X+3617641Y+4745188D01*
X+3617641Y+4751563D01*
X+3662277Y+4796199D01*
X+4107641Y+4796199D01*
X+4107641Y+4820021D01*
X+4069541Y+4820021D01*
X+4069541Y+5150219D01*
X+4298139Y+5150219D01*
X+4298139Y+4820021D01*
X+4260039Y+4820021D01*
X+4260039Y+4688437D01*
X+4215403Y+4643801D01*
X+3731774Y+4643801D01*
X+3215539Y+4127566D01*
X+3184068Y+4127502D01*
X+1338547Y+4123737D01*
X+1293801Y+4168393D01*
X+1293801Y+8359001D01*
X+879442Y+7944642D01*
X+117505Y+7944642D01*
X-154939Y+8217086D01*
X-154939Y+8260081D01*
X-157647Y+8260081D01*
X-269239Y+8371673D01*
X-269239Y+8529487D01*
X-157647Y+8641079D01*
X+167Y+8641079D01*
X+86361Y+8554885D01*
X+86361Y+8709262D01*
X-433801Y+8709262D01*
X-433801Y+7039057D01*
X-476953Y+6994690D01*
X-507885Y+6993831D01*
X-793801Y+6985889D01*
X-793801Y+4036358D01*
X+4251609Y+4046949D01*
X+4874261Y+4669601D01*
X+4874261Y+4820021D01*
X+4831541Y+4820021D01*
X+4831541Y+5150219D01*
X+5060139Y+5150219D01*
X+5060139Y+4820021D01*
X+5026659Y+4820021D01*
X+5026659Y+4606479D01*
X+4314864Y+3894684D01*
X-901452Y+3883736D01*
X-946199Y+3928391D01*
X-946199Y+7090943D01*
X-903047Y+7135310D01*
X-586199Y+7144111D01*
X-586199Y+7763931D01*
X-747419Y+7602711D01*
X-805859Y+7602711D01*
X-805859Y+7529260D01*
X-1110657Y+7529260D01*
X-1110657Y+7834058D01*
X-805859Y+7834058D01*
X-805859Y+7759795D01*
X-720205Y+7845449D01*
X-720205Y+9089134D01*
X-804410Y+9173339D01*
X-2489836Y+9173339D01*
X-2893061Y+8770114D01*
X-2893061Y+7148643D01*
X-2876737Y+7132319D01*
X-2864746Y+7132319D01*
X-2788546Y+7208519D01*
X-2662294Y+7208519D01*
X-2573021Y+7119246D01*
X-2573021Y+6992994D01*
X-2662294Y+6903721D01*
X-2788546Y+6903721D01*
X-2864746Y+6979921D01*
X-2939863Y+6979921D01*
X-3045459Y+7085517D01*
X-3045459Y+8833236D01*
X-2552958Y+9325737D01*
X-741284Y+9325737D01*
X-567807Y+9152260D01*
X-567807Y+8835416D01*
X-541563Y+8861660D01*
X+194123Y+8861660D01*
X+238759Y+8817024D01*
X+238759Y+8263700D01*
X+258866Y+8243593D01*
X+688704Y+8243593D01*
X+893085Y+8447974D01*
X+893085Y+8965936D01*
X+1208310Y+9281161D01*
X+839281Y+9281161D01*
X+505459Y+8947339D01*
X+505459Y+8641079D01*
X+508167Y+8641079D01*
X+619759Y+8529487D01*
X+619759Y+8371673D01*
X+508167Y+8260081D01*
X+350353Y+8260081D01*
X+238761Y+8371673D01*
X+238761Y+8529487D01*
X+350353Y+8641079D01*
X+353061Y+8641079D01*
X+353061Y+9010461D01*
X+776159Y+9433559D01*
X+4463083Y+9433559D01*
X+4485402Y+9411240D01*
G37*
G36*
X+5867639Y+8359879D02*
X+5639041Y+8359879D01*
X+5639041Y+8029681D01*
X+5867639Y+8029681D01*
X+5867639Y+8359879D01*
G37*
G36*
X+3220719Y+6890285D02*
X+3220719Y+6818441D01*
X+3451786Y+6587374D01*
X+4568463Y+6587374D01*
X+4825537Y+6330300D01*
X+4825537Y+6059879D01*
X+4851639Y+6059879D01*
X+4851639Y+5729681D01*
X+4806110Y+5729681D01*
X+4806110Y+5548139D01*
X+4686766Y+5428795D01*
X+4039318Y+5428795D01*
X+4006039Y+5395516D01*
X+4006039Y+5150219D01*
X+4044139Y+5150219D01*
X+4044139Y+4820021D01*
X+3815541Y+4820021D01*
X+3815541Y+5150219D01*
X+3853641Y+5150219D01*
X+3853641Y+5458642D01*
X+3976192Y+5581193D01*
X+4623644Y+5581193D01*
X+4653712Y+5611261D01*
X+4653712Y+5729681D01*
X+4623041Y+5729681D01*
X+4623041Y+6059879D01*
X+4673139Y+6059879D01*
X+4673139Y+6267178D01*
X+4505341Y+6434976D01*
X+3388664Y+6434976D01*
X+3112959Y+6710681D01*
X+3041115Y+6710681D01*
X+2966721Y+6785075D01*
X+2966721Y+6890285D01*
X+3041115Y+6964679D01*
X+3146325Y+6964679D01*
X+3220719Y+6890285D01*
G37*
G36*
X+2311639Y+6059879D02*
X+2083041Y+6059879D01*
X+2083041Y+5729681D01*
X+2311639Y+5729681D01*
X+2311639Y+6059879D01*
G37*
G36*
X+3835639Y+6059879D02*
X+3607041Y+6059879D01*
X+3607041Y+5729681D01*
X+3835639Y+5729681D01*
X+3835639Y+6059879D01*
G37*
G36*
X+5105639Y+6059879D02*
X+4877041Y+6059879D01*
X+4877041Y+5729681D01*
X+5105639Y+5729681D01*
X+5105639Y+6059879D01*
G37*
G36*
X+3835639Y+8359879D02*
X+3607041Y+8359879D01*
X+3607041Y+8029681D01*
X+3835639Y+8029681D01*
X+3835639Y+8359879D01*
G37*
G36*
X+5613639Y+8359879D02*
X+5385041Y+8359879D01*
X+5385041Y+8029681D01*
X+5613639Y+8029681D01*
X+5613639Y+8359879D01*
G37*
G36*
X+5613639Y+5729681D02*
X+5503365Y+5729681D01*
X+5503365Y+5387176D01*
X+5486910Y+5366391D01*
X+5338076Y+5178385D01*
X+5306634Y+5163174D01*
X+4562258Y+5163174D01*
X+4549303Y+5150219D01*
X+4552139Y+5150219D01*
X+4552139Y+4820021D01*
X+4323541Y+4820021D01*
X+4323541Y+5150219D01*
X+4361641Y+5150219D01*
X+4361641Y+5178081D01*
X+4499132Y+5315572D01*
X+5252309Y+5315572D01*
X+5350967Y+5440197D01*
X+5350967Y+5729681D01*
X+5131041Y+5729681D01*
X+5131041Y+6059879D01*
X+5359639Y+6059879D01*
X+5359639Y+5802685D01*
X+5369401Y+5812447D01*
X+5385041Y+5845594D01*
X+5385041Y+6059879D01*
X+5613639Y+6059879D01*
X+5613639Y+5729681D01*
G37*
G36*
X+4597639Y+6059879D02*
X+4369041Y+6059879D01*
X+4369041Y+5729681D01*
X+4597639Y+5729681D01*
X+4597639Y+6059879D01*
G37*
G36*
X+5359639Y+8359879D02*
X+5131041Y+8359879D01*
X+5131041Y+8029681D01*
X+5359639Y+8029681D01*
X+5359639Y+8359879D01*
G37*
G36*
X+5105639Y+8359879D02*
X+4877041Y+8359879D01*
X+4877041Y+8029681D01*
X+5105639Y+8029681D01*
X+5105639Y+8359879D01*
G37*
G36*
X+2565639Y+8029681D02*
X+2555239Y+8029681D01*
X+2555239Y+6818820D01*
X+2541871Y+6789044D01*
X+2244459Y+6522842D01*
X+2244459Y+6461015D01*
X+2170065Y+6386621D01*
X+2064855Y+6386621D01*
X+1990461Y+6461015D01*
X+1990461Y+6566225D01*
X+2064855Y+6640619D01*
X+2143461Y+6640619D01*
X+2402841Y+6869521D01*
X+2402841Y+8026544D01*
X+2402205Y+8029681D01*
X+2337041Y+8029681D01*
X+2337041Y+8359879D01*
X+2565639Y+8359879D01*
X+2565639Y+8029681D01*
G37*
G36*
X+3327639Y+6059879D02*
X+3099041Y+6059879D01*
X+3099041Y+5729681D01*
X+3327639Y+5729681D01*
X+3327639Y+6059879D01*
G37*
G36*
X+3073639Y+6059879D02*
X+2845041Y+6059879D01*
X+2845041Y+5729681D01*
X+3073639Y+5729681D01*
X+3073639Y+6059879D01*
G37*
G36*
X+4597639Y+8029681D02*
X+4564959Y+8029681D01*
X+4636167Y+7958473D01*
X+6328223Y+7958473D01*
X+6428739Y+7857957D01*
X+6428739Y+4802059D01*
X+6097081Y+4470401D01*
X+5168277Y+4470401D01*
X+5123641Y+4515037D01*
X+5123641Y+4820021D01*
X+5085541Y+4820021D01*
X+5085541Y+5150219D01*
X+5314139Y+5150219D01*
X+5314139Y+4820021D01*
X+5276039Y+4820021D01*
X+5276039Y+4622799D01*
X+6033959Y+4622799D01*
X+6276341Y+4865181D01*
X+6276341Y+7794831D01*
X+6265097Y+7806075D01*
X+4573045Y+7806075D01*
X+4407141Y+7971979D01*
X+4407141Y+8029681D01*
X+4369041Y+8029681D01*
X+4369041Y+8359879D01*
X+4597639Y+8359879D01*
X+4597639Y+8029681D01*
G37*
G36*
X+4089639Y+8029681D02*
X+4058919Y+8029681D01*
X+4058919Y+7918261D01*
X+4212916Y+7764264D01*
X+5967493Y+7764264D01*
X+6175447Y+7686791D01*
X+6202679Y+7647586D01*
X+6202679Y+4918899D01*
X+5911661Y+4627881D01*
X+5422277Y+4627881D01*
X+5377641Y+4672517D01*
X+5377641Y+4820021D01*
X+5339541Y+4820021D01*
X+5339541Y+5150219D01*
X+5568139Y+5150219D01*
X+5568139Y+4820021D01*
X+5530039Y+4820021D01*
X+5530039Y+4780279D01*
X+5848539Y+4780279D01*
X+6050281Y+4982021D01*
X+6050281Y+7570791D01*
X+5940027Y+7611866D01*
X+4149794Y+7611866D01*
X+3906521Y+7855139D01*
X+3906521Y+8029681D01*
X+3861041Y+8029681D01*
X+3861041Y+8359879D01*
X+4089639Y+8359879D01*
X+4089639Y+8029681D01*
G37*
G36*
X+4089639Y+6059879D02*
X+3861041Y+6059879D01*
X+3861041Y+5729681D01*
X+4089639Y+5729681D01*
X+4089639Y+6059879D01*
G37*
G36*
X+3581639Y+6059879D02*
X+3353041Y+6059879D01*
X+3353041Y+5729681D01*
X+3581639Y+5729681D01*
X+3581639Y+6059879D01*
G37*
G36*
X+2819639Y+6059879D02*
X+2591041Y+6059879D01*
X+2591041Y+5729681D01*
X+2819639Y+5729681D01*
X+2819639Y+6059879D01*
G37*
G36*
X+2565639Y+6059879D02*
X+2337041Y+6059879D01*
X+2337041Y+5729681D01*
X+2565639Y+5729681D01*
X+2565639Y+6059879D01*
G37*
G36*
X+4343639Y+6059879D02*
X+4115041Y+6059879D01*
X+4115041Y+5729681D01*
X+4343639Y+5729681D01*
X+4343639Y+6059879D01*
G37*
G36*
X+5867639Y+6059879D02*
X+5639041Y+6059879D01*
X+5639041Y+5729681D01*
X+5867639Y+5729681D01*
X+5867639Y+6059879D01*
G37*
G36*
X+4577541Y+4820021D02*
X+4806139Y+4820021D01*
X+4806139Y+5150219D01*
X+4577541Y+5150219D01*
X+4577541Y+4820021D01*
G37*
G36*
X+1124279Y+7282633D02*
X+1124279Y+7177423D01*
X+1049885Y+7103029D01*
X+944675Y+7103029D01*
X+893878Y+7153826D01*
X-193801Y+7153803D01*
X-193801Y+5679662D01*
X-196556Y+5669697D01*
X-492329Y+4599779D01*
X-185421Y+4599779D01*
X-185421Y+4320381D01*
X-718819Y+4320381D01*
X-718819Y+4599779D01*
X-650442Y+4599779D01*
X-346199Y+5700337D01*
X-346199Y+7261562D01*
X-301562Y+7306199D01*
X+893873Y+7306225D01*
X+944675Y+7357027D01*
X+1049885Y+7357027D01*
X+1124279Y+7282633D01*
G37*
G36*
X+1228459Y+6566225D02*
X+1228459Y+6461015D01*
X+1154065Y+6386621D01*
X+1048855Y+6386621D01*
X+998055Y+6437421D01*
X+345843Y+6437421D01*
X+279619Y+6371197D01*
X+279619Y+6070464D01*
X+282159Y+6067924D01*
X+282159Y+4589779D01*
X+594579Y+4589779D01*
X+594579Y+4310381D01*
X+61181Y+4310381D01*
X+61181Y+4589779D01*
X+129761Y+4589779D01*
X+129761Y+6004794D01*
X+127221Y+6007334D01*
X+127221Y+6434323D01*
X+282717Y+6589819D01*
X+998055Y+6589819D01*
X+1048855Y+6640619D01*
X+1154065Y+6640619D01*
X+1228459Y+6566225D01*
G37*
G36*
X-1145088Y+8782005D02*
X-1145088Y+8782003D01*
X-900675Y+8537590D01*
X-900675Y+8362378D01*
X-805859Y+8362378D01*
X-805859Y+8057580D01*
X-1110657Y+8057580D01*
X-1110657Y+8179500D01*
X-1216257Y+8179500D01*
X-1440859Y+7954898D01*
X-1440859Y+6655883D01*
X-1391516Y+6606539D01*
X-1319673Y+6606539D01*
X-1245279Y+6532145D01*
X-1245279Y+6426935D01*
X-1283801Y+6388413D01*
X-1283801Y+5073197D01*
X-1635595Y+4721403D01*
X-1633679Y+4719487D01*
X-1633679Y+4561673D01*
X-1745271Y+4450081D01*
X-1903085Y+4450081D01*
X-2014677Y+4561673D01*
X-2014677Y+4719487D01*
X-1903085Y+4831079D01*
X-1745271Y+4831079D01*
X-1743355Y+4829163D01*
X-1436199Y+5136319D01*
X-1436199Y+6363857D01*
X-1499277Y+6426935D01*
X-1499277Y+6498777D01*
X-1499279Y+6498779D01*
X-1499279Y+6426935D01*
X-1573673Y+6352541D01*
X-1678883Y+6352541D01*
X-1729683Y+6403341D01*
X-2040079Y+6403341D01*
X-2040079Y+5699296D01*
X-2256197Y+5483178D01*
X-2256197Y+4831079D01*
X-2253271Y+4831079D01*
X-2141679Y+4719487D01*
X-2141679Y+4561673D01*
X-2253271Y+4450081D01*
X-2411085Y+4450081D01*
X-2522677Y+4561673D01*
X-2522677Y+4719487D01*
X-2411085Y+4831079D01*
X-2408595Y+4831079D01*
X-2408595Y+5546300D01*
X-2192477Y+5762418D01*
X-2192477Y+6511103D01*
X-2147841Y+6555739D01*
X-1810237Y+6555739D01*
X-1966637Y+6712139D01*
X-1966637Y+7208521D01*
X-2030137Y+7208521D01*
X-2030137Y+7780021D01*
X-2254620Y+7780021D01*
X-2264079Y+6903916D01*
X-2279389Y+6883821D01*
X-2583801Y+6484280D01*
X-2583801Y+4144889D01*
X-1566545Y+4127252D01*
X-1392377Y+4301420D01*
X-1392377Y+4450081D01*
X-1395085Y+4450081D01*
X-1506677Y+4561673D01*
X-1506677Y+4719487D01*
X-1395085Y+4831079D01*
X-1237271Y+4831079D01*
X-1125679Y+4719487D01*
X-1125679Y+4561673D01*
X-1237271Y+4450081D01*
X-1239979Y+4450081D01*
X-1239979Y+4238298D01*
X-1492614Y+3985663D01*
X-1521355Y+3974049D01*
X-1536853Y+3974317D01*
X-2692493Y+3994353D01*
X-2736199Y+4038823D01*
X-2736199Y+6535720D01*
X-2415921Y+6956084D01*
X-2405856Y+7888363D01*
X-2361322Y+7932419D01*
X-2066779Y+7932419D01*
X-2130281Y+7995921D01*
X-2586094Y+7995921D01*
X-2662294Y+7919721D01*
X-2788546Y+7919721D01*
X-2877819Y+8008994D01*
X-2877819Y+8135246D01*
X-2788546Y+8224519D01*
X-2662294Y+8224519D01*
X-2586094Y+8148319D01*
X-2067155Y+8148319D01*
X-1981877Y+8063041D01*
X-1981877Y+8547835D01*
X-2032677Y+8598635D01*
X-2032677Y+8703845D01*
X-1958283Y+8778239D01*
X-1853073Y+8778239D01*
X-1778679Y+8703845D01*
X-1778679Y+8598635D01*
X-1829479Y+8547835D01*
X-1829479Y+7995919D01*
X-1750739Y+7995919D01*
X-1750739Y+7678419D01*
X-1749687Y+7678419D01*
X-1725337Y+7706166D01*
X-1725337Y+8289800D01*
X-1599419Y+8415718D01*
X-1055018Y+8415718D01*
X-1053073Y+8413773D01*
X-1053073Y+8474468D01*
X-1252848Y+8674243D01*
X-1465643Y+8674243D01*
X-1524679Y+8674198D01*
X-1524679Y+8598635D01*
X-1599073Y+8524241D01*
X-1704283Y+8524241D01*
X-1778677Y+8598635D01*
X-1778677Y+8703845D01*
X-1727877Y+8754645D01*
X-1727877Y+8781845D01*
X-1683281Y+8826475D01*
X-1466114Y+8826641D01*
X-1189724Y+8826641D01*
X-1145088Y+8782005D01*
G37*
G36*
X+1156299Y+4640579D02*
X+927701Y+4640579D01*
X+927701Y+4310381D01*
X+1156299Y+4310381D01*
X+1156299Y+4640579D01*
G37*
%LPD*%
D10*
X+4737340Y+5894780D02*
X+4729911Y+5887351D01*
X+4729911Y+5579700D01*
X+4655205Y+5504994D01*
X+4007755Y+5504994D01*
X+3929840Y+5427079D01*
X+3929840Y+4985120D01*
X+5499340Y+5894780D02*
X+5432500Y+5767780D01*
X+5427166Y+5762446D01*
X+5427166Y+5413687D01*
X+5289172Y+5239373D01*
X+4530695Y+5239373D01*
X+4437840Y+5146518D01*
X+4437840Y+4985120D01*
X-1626278Y+6479540D02*
X-1890438Y+6743700D01*
X-1890438Y+7348220D01*
X-958258Y+8209979D02*
X-957039Y+8209979D01*
X-923783Y+8209979D02*
X-957039Y+8209979D01*
X-957039Y+8208760D01*
X-941020Y+8192741D01*
X-958258Y+8209979D02*
X-957039Y+8208760D01*
X-1890438Y+7856220D02*
X-1882818Y+7856220D01*
X-1905678Y+7879080D01*
X-1905678Y+8651240D01*
X+454880Y+4450080D02*
X+454880Y+4284980D01*
X+348200Y+4178300D01*
X-43340Y+4178300D01*
X-325120Y+4460080D01*
X-965878Y+8269484D02*
X-965878Y+8218818D01*
X-965878Y+8209979D01*
X-958258Y+8209979D01*
X-1003247Y+8255699D01*
X-957039Y+8209979D02*
X-965878Y+8218818D01*
X-976874Y+8229814D01*
X-976874Y+8258488D01*
X-965878Y+8269484D02*
X-976874Y+8258488D01*
X-979663Y+8255699D01*
X-1003247Y+8255699D01*
X-2725420Y+8072120D02*
X-2098718Y+8072120D01*
X-1984418Y+7957820D01*
X-1890438Y+7856220D01*
X+2197340Y+8194780D02*
X+2197340Y+7100359D01*
X+2180140Y+7083159D01*
X+2077720Y+6980739D01*
X+2077720Y+6837680D01*
X+3093720Y+6837680D02*
X+3420225Y+6511175D01*
X+4536902Y+6511175D01*
X+4749338Y+6298739D01*
X+4749338Y+5906778D01*
X+4737340Y+5894780D01*
X-1003247Y+8255699D02*
X-1033239Y+8286179D01*
X-1086579Y+8339519D01*
X-1567858Y+8339519D01*
X-1649138Y+8258239D01*
X-1649138Y+7677472D01*
X-1715178Y+7602220D01*
X-1890438Y+7602220D01*
X-1003247Y+8255699D02*
X-1247818Y+8255699D01*
X-1517058Y+7986459D01*
X-1517058Y+6624320D01*
X-1372278Y+6479540D01*
X-2725420Y+7056120D02*
X-2908300Y+7056120D01*
X-2969260Y+7117080D01*
X-2969260Y+8801675D01*
X-2521397Y+9249538D01*
X-772847Y+9249538D01*
X-644006Y+9120697D01*
X-644006Y+7813886D01*
X-778982Y+7678910D01*
X-955509Y+7678910D01*
X-958258Y+7681659D01*
X-976874Y+8258488D02*
X-976874Y+8506029D01*
X-1221287Y+8750442D01*
X-1465701Y+8750442D01*
X-1651678Y+8750300D01*
X-1651678Y+8651240D01*
X+4737340Y+8194780D02*
X+4736281Y+8195839D01*
X+4736281Y+9052601D01*
X+4431522Y+9357360D01*
X+807720Y+9357360D01*
X+429260Y+8978900D01*
X+429260Y+8427720D01*
X+429260Y+8450580D01*
X+3467340Y+8194780D02*
X+3464942Y+8197178D01*
X+3464942Y+8494807D01*
X+2879249Y+9080500D01*
X+1450340Y+9080500D01*
X+1267460Y+8897620D01*
X+1267460Y+8440420D01*
X+847881Y+8020841D01*
X+149066Y+8020841D01*
X-78740Y+8248647D01*
X-78740Y+8450580D01*
X+2013280Y+7230028D02*
X+1686560Y+7556748D01*
X+1686560Y+8420100D01*
X+2016760Y+8750300D01*
X+2569849Y+8750300D01*
X+2946030Y+8374119D01*
X+2946030Y+8321780D01*
X+2959340Y+8194780D01*
X+2117460Y+6513620D02*
X+2479040Y+6835140D01*
X+2479040Y+8034020D01*
X+2451340Y+8194780D01*
X-1626278Y+6479540D02*
X-2116278Y+6479540D01*
X-2116278Y+5730857D01*
X-2332396Y+5514739D01*
X-2332396Y+4640798D01*
X-2332178Y+4640580D01*
X+1542000Y+4475480D02*
X+1542000Y+5385816D01*
X+1542247Y+5386063D01*
X+1542247Y+5461659D01*
X+1660000Y+5579412D01*
X+1660000Y+6837680D01*
X+2077720Y+6837680D01*
X+4183840Y+4985120D02*
X+4183840Y+4720000D01*
X+3693840Y+4720000D01*
X+3693840Y+4713627D01*
X+3183913Y+4203700D01*
X+1370000Y+4200000D01*
X+1370000Y+8339999D01*
X+1960641Y+8930640D01*
X+2641600Y+8930640D01*
X+3195320Y+8376920D01*
X+3195320Y+8321780D01*
X+3213340Y+8194780D01*
X+997280Y+7230028D02*
X-270000Y+7230000D01*
X-270000Y+5690000D01*
X-583980Y+4554220D01*
X-579120Y+4460080D01*
X+4229340Y+8194780D02*
X+4229340Y+8868991D01*
X+3890831Y+9207500D01*
X+1242409Y+9207500D01*
X+969284Y+8934375D01*
X+969284Y+8416413D01*
X+720265Y+8167394D01*
X+227305Y+8167394D01*
X+162560Y+8232139D01*
X+162560Y+8785461D01*
X-510000Y+8785461D01*
X-510000Y+7070000D01*
X-870000Y+7060000D01*
X-870000Y+3960000D01*
X+4283237Y+3970817D01*
X+4950460Y+4638040D01*
X+4950460Y+4980500D01*
X+4945840Y+4985120D01*
X-1372278Y+6479540D02*
X-1360000Y+6479540D01*
X-1360000Y+5104758D01*
X-1824178Y+4640580D01*
X-1890438Y+7856220D02*
X-2330000Y+7856220D01*
X-2340000Y+6930000D01*
X-2660000Y+6510000D01*
X-2660000Y+4070000D01*
X-1535533Y+4050504D01*
X-1316178Y+4269859D01*
X-1316178Y+4640580D01*
X+200880Y+4450080D02*
X+205960Y+4450080D01*
X+205960Y+6036359D01*
X+203420Y+6038899D01*
X+203420Y+6402760D01*
X+314280Y+6513620D01*
X+1101460Y+6513620D01*
X+2705340Y+8194780D02*
X+2773073Y+8067780D01*
X+3451612Y+7389241D01*
X+5811520Y+7389241D01*
X+5963920Y+7245341D01*
X+5963920Y+5241200D01*
X+5707840Y+4985120D01*
X+3975340Y+8194780D02*
X+3982720Y+8187400D01*
X+3982720Y+7886700D01*
X+4181355Y+7688065D01*
X+5953760Y+7688065D01*
X+6126480Y+7623719D01*
X+6126480Y+4950460D01*
X+5880100Y+4704080D01*
X+5453840Y+4704080D01*
X+5453840Y+4985120D01*
X+4483340Y+8194780D02*
X+4483340Y+8003540D01*
X+4604606Y+7882274D01*
X+6296660Y+7882274D01*
X+6352540Y+7826394D01*
X+6352540Y+4833620D01*
X+6065520Y+4546600D01*
X+5199840Y+4546600D01*
X+5199840Y+4985120D01*
D11*
X-3136900Y+3449320D02*
X+6544960Y+3449320D01*
X+6544960Y+9501540D01*
X-3136900Y+9501540D01*
X-3136900Y+3449320D01*
X+4485402Y+9411240D02*
X+4812480Y+9084162D01*
X+4812480Y+8359879D01*
X+4851639Y+8359879D01*
X+4851639Y+8029681D01*
X+4623041Y+8029681D01*
X+4623041Y+8359879D01*
X+4660082Y+8359879D01*
X+4660082Y+9021040D01*
X+4399961Y+9281161D01*
X+3924930Y+9281161D01*
X+4305539Y+8900552D01*
X+4305539Y+8359879D01*
X+4343639Y+8359879D01*
X+4343639Y+8029681D01*
X+4115041Y+8029681D01*
X+4115041Y+8359879D01*
X+4153141Y+8359879D01*
X+4153141Y+8837430D01*
X+3859270Y+9131301D01*
X+2936208Y+9131301D01*
X+3541141Y+8526368D01*
X+3541141Y+8359879D01*
X+3581639Y+8359879D01*
X+3581639Y+8029681D01*
X+3353041Y+8029681D01*
X+3353041Y+8359879D01*
X+3388743Y+8359879D01*
X+3388743Y+8463246D01*
X+2847688Y+9004301D01*
X+2675699Y+9004301D01*
X+3271519Y+8408481D01*
X+3271519Y+8359879D01*
X+3327639Y+8359879D01*
X+3327639Y+8029681D01*
X+3099041Y+8029681D01*
X+3099041Y+8359879D01*
X+3104601Y+8359879D01*
X+2610039Y+8854441D01*
X+1992202Y+8854441D01*
X+1446199Y+8308438D01*
X+1446199Y+4640579D01*
X+1465801Y+4640579D01*
X+1465801Y+5417473D01*
X+1466048Y+5417720D01*
X+1466048Y+5493222D01*
X+1583801Y+5610975D01*
X+1583801Y+6869243D01*
X+1628437Y+6913879D01*
X+1974315Y+6913879D01*
X+2001521Y+6941085D01*
X+2001521Y+7012302D01*
X+2121141Y+7131922D01*
X+2121141Y+7158285D01*
X+2065885Y+7103029D01*
X+1960675Y+7103029D01*
X+1886281Y+7177423D01*
X+1886281Y+7249267D01*
X+1610361Y+7525187D01*
X+1610361Y+8451661D01*
X+1985199Y+8826499D01*
X+2601410Y+8826499D01*
X+3022229Y+8405680D01*
X+3022229Y+8359879D01*
X+3073639Y+8359879D01*
X+3073639Y+8029681D01*
X+2918932Y+8029681D01*
X+3483173Y+7465440D01*
X+5841808Y+7465440D01*
X+5863833Y+7444644D01*
X+6027668Y+7289947D01*
X+6040119Y+7261065D01*
X+6040119Y+5209639D01*
X+5822139Y+4991659D01*
X+5822139Y+4820021D01*
X+5593541Y+4820021D01*
X+5593541Y+5150219D01*
X+5765179Y+5150219D01*
X+5887721Y+5272761D01*
X+5887721Y+7212492D01*
X+5781231Y+7313042D01*
X+3420051Y+7313042D01*
X+2711173Y+8021920D01*
X+2706667Y+8029681D01*
X+2591041Y+8029681D01*
X+2591041Y+8359879D01*
X+2819639Y+8359879D01*
X+2819639Y+8146792D01*
X+2836016Y+8112597D01*
X+2845041Y+8103572D01*
X+2845041Y+8359879D01*
X+2852510Y+8359879D01*
X+2538288Y+8674101D01*
X+2048321Y+8674101D01*
X+1762759Y+8388539D01*
X+1762759Y+7588309D01*
X+1994041Y+7357027D01*
X+2065885Y+7357027D01*
X+2121141Y+7301771D01*
X+2121141Y+8029681D01*
X+2083041Y+8029681D01*
X+2083041Y+8359879D01*
X+2311639Y+8359879D01*
X+2311639Y+8029681D01*
X+2273539Y+8029681D01*
X+2273539Y+7068796D01*
X+2153919Y+6949176D01*
X+2153919Y+6941085D01*
X+2204719Y+6890285D01*
X+2204719Y+6785075D01*
X+2130325Y+6710681D01*
X+2025115Y+6710681D01*
X+1974315Y+6761481D01*
X+1736199Y+6761481D01*
X+1736199Y+5547849D01*
X+1618446Y+5430096D01*
X+1618446Y+5354406D01*
X+1618199Y+5354159D01*
X+1618199Y+4640579D01*
X+1656299Y+4640579D01*
X+1656299Y+4310381D01*
X+1446199Y+4310381D01*
X+1446199Y+4276354D01*
X+3152287Y+4279834D01*
X+3617641Y+4745188D01*
X+3617641Y+4751563D01*
X+3662277Y+4796199D01*
X+4107641Y+4796199D01*
X+4107641Y+4820021D01*
X+4069541Y+4820021D01*
X+4069541Y+5150219D01*
X+4298139Y+5150219D01*
X+4298139Y+4820021D01*
X+4260039Y+4820021D01*
X+4260039Y+4688437D01*
X+4215403Y+4643801D01*
X+3731774Y+4643801D01*
X+3215539Y+4127566D01*
X+3184068Y+4127502D01*
X+1338547Y+4123737D01*
X+1293801Y+4168393D01*
X+1293801Y+8359001D01*
X+879442Y+7944642D01*
X+117505Y+7944642D01*
X-154939Y+8217086D01*
X-154939Y+8260081D01*
X-157647Y+8260081D01*
X-269239Y+8371673D01*
X-269239Y+8529487D01*
X-157647Y+8641079D01*
X+167Y+8641079D01*
X+86361Y+8554885D01*
X+86361Y+8709262D01*
X-433801Y+8709262D01*
X-433801Y+7039057D01*
X-476953Y+6994690D01*
X-507885Y+6993831D01*
X-793801Y+6985889D01*
X-793801Y+4036358D01*
X+4251609Y+4046949D01*
X+4874261Y+4669601D01*
X+4874261Y+4820021D01*
X+4831541Y+4820021D01*
X+4831541Y+5150219D01*
X+5060139Y+5150219D01*
X+5060139Y+4820021D01*
X+5026659Y+4820021D01*
X+5026659Y+4606479D01*
X+4314864Y+3894684D01*
X-901452Y+3883736D01*
X-946199Y+3928391D01*
X-946199Y+7090943D01*
X-903047Y+7135310D01*
X-586199Y+7144111D01*
X-586199Y+7763931D01*
X-747419Y+7602711D01*
X-805859Y+7602711D01*
X-805859Y+7529260D01*
X-1110657Y+7529260D01*
X-1110657Y+7834058D01*
X-805859Y+7834058D01*
X-805859Y+7759795D01*
X-720205Y+7845449D01*
X-720205Y+9089134D01*
X-804410Y+9173339D01*
X-2489836Y+9173339D01*
X-2893061Y+8770114D01*
X-2893061Y+7148643D01*
X-2876737Y+7132319D01*
X-2864746Y+7132319D01*
X-2788546Y+7208519D01*
X-2662294Y+7208519D01*
X-2573021Y+7119246D01*
X-2573021Y+6992994D01*
X-2662294Y+6903721D01*
X-2788546Y+6903721D01*
X-2864746Y+6979921D01*
X-2939863Y+6979921D01*
X-3045459Y+7085517D01*
X-3045459Y+8833236D01*
X-2552958Y+9325737D01*
X-741284Y+9325737D01*
X-567807Y+9152260D01*
X-567807Y+8835416D01*
X-541563Y+8861660D01*
X+194123Y+8861660D01*
X+238759Y+8817024D01*
X+238759Y+8263700D01*
X+258866Y+8243593D01*
X+688704Y+8243593D01*
X+893085Y+8447974D01*
X+893085Y+8965936D01*
X+1208310Y+9281161D01*
X+839281Y+9281161D01*
X+505459Y+8947339D01*
X+505459Y+8641079D01*
X+508167Y+8641079D01*
X+619759Y+8529487D01*
X+619759Y+8371673D01*
X+508167Y+8260081D01*
X+350353Y+8260081D01*
X+238761Y+8371673D01*
X+238761Y+8529487D01*
X+350353Y+8641079D01*
X+353061Y+8641079D01*
X+353061Y+9010461D01*
X+776159Y+9433559D01*
X+4463083Y+9433559D01*
X+4485402Y+9411240D01*
X+5867639Y+8359879D02*
X+5639041Y+8359879D01*
X+5639041Y+8029681D01*
X+5867639Y+8029681D01*
X+5867639Y+8359879D01*
X+3220719Y+6890285D02*
X+3220719Y+6818441D01*
X+3451786Y+6587374D01*
X+4568463Y+6587374D01*
X+4825537Y+6330300D01*
X+4825537Y+6059879D01*
X+4851639Y+6059879D01*
X+4851639Y+5729681D01*
X+4806110Y+5729681D01*
X+4806110Y+5548139D01*
X+4686766Y+5428795D01*
X+4039318Y+5428795D01*
X+4006039Y+5395516D01*
X+4006039Y+5150219D01*
X+4044139Y+5150219D01*
X+4044139Y+4820021D01*
X+3815541Y+4820021D01*
X+3815541Y+5150219D01*
X+3853641Y+5150219D01*
X+3853641Y+5458642D01*
X+3976192Y+5581193D01*
X+4623644Y+5581193D01*
X+4653712Y+5611261D01*
X+4653712Y+5729681D01*
X+4623041Y+5729681D01*
X+4623041Y+6059879D01*
X+4673139Y+6059879D01*
X+4673139Y+6267178D01*
X+4505341Y+6434976D01*
X+3388664Y+6434976D01*
X+3112959Y+6710681D01*
X+3041115Y+6710681D01*
X+2966721Y+6785075D01*
X+2966721Y+6890285D01*
X+3041115Y+6964679D01*
X+3146325Y+6964679D01*
X+3220719Y+6890285D01*
X+2311639Y+6059879D02*
X+2083041Y+6059879D01*
X+2083041Y+5729681D01*
X+2311639Y+5729681D01*
X+2311639Y+6059879D01*
X+3835639Y+6059879D02*
X+3607041Y+6059879D01*
X+3607041Y+5729681D01*
X+3835639Y+5729681D01*
X+3835639Y+6059879D01*
X+5105639Y+6059879D02*
X+4877041Y+6059879D01*
X+4877041Y+5729681D01*
X+5105639Y+5729681D01*
X+5105639Y+6059879D01*
X+3835639Y+8359879D02*
X+3607041Y+8359879D01*
X+3607041Y+8029681D01*
X+3835639Y+8029681D01*
X+3835639Y+8359879D01*
X+5613639Y+8359879D02*
X+5385041Y+8359879D01*
X+5385041Y+8029681D01*
X+5613639Y+8029681D01*
X+5613639Y+8359879D01*
X+5613639Y+5729681D02*
X+5503365Y+5729681D01*
X+5503365Y+5387176D01*
X+5486910Y+5366391D01*
X+5338076Y+5178385D01*
X+5306634Y+5163174D01*
X+4562258Y+5163174D01*
X+4549303Y+5150219D01*
X+4552139Y+5150219D01*
X+4552139Y+4820021D01*
X+4323541Y+4820021D01*
X+4323541Y+5150219D01*
X+4361641Y+5150219D01*
X+4361641Y+5178081D01*
X+4499132Y+5315572D01*
X+5252309Y+5315572D01*
X+5350967Y+5440197D01*
X+5350967Y+5729681D01*
X+5131041Y+5729681D01*
X+5131041Y+6059879D01*
X+5359639Y+6059879D01*
X+5359639Y+5802685D01*
X+5369401Y+5812447D01*
X+5385041Y+5845594D01*
X+5385041Y+6059879D01*
X+5613639Y+6059879D01*
X+5613639Y+5729681D01*
X+4597639Y+6059879D02*
X+4369041Y+6059879D01*
X+4369041Y+5729681D01*
X+4597639Y+5729681D01*
X+4597639Y+6059879D01*
X+5359639Y+8359879D02*
X+5131041Y+8359879D01*
X+5131041Y+8029681D01*
X+5359639Y+8029681D01*
X+5359639Y+8359879D01*
X+5105639Y+8359879D02*
X+4877041Y+8359879D01*
X+4877041Y+8029681D01*
X+5105639Y+8029681D01*
X+5105639Y+8359879D01*
X+2565639Y+8029681D02*
X+2555239Y+8029681D01*
X+2555239Y+6818820D01*
X+2541871Y+6789044D01*
X+2244459Y+6522842D01*
X+2244459Y+6461015D01*
X+2170065Y+6386621D01*
X+2064855Y+6386621D01*
X+1990461Y+6461015D01*
X+1990461Y+6566225D01*
X+2064855Y+6640619D01*
X+2143461Y+6640619D01*
X+2402841Y+6869521D01*
X+2402841Y+8026544D01*
X+2402205Y+8029681D01*
X+2337041Y+8029681D01*
X+2337041Y+8359879D01*
X+2565639Y+8359879D01*
X+2565639Y+8029681D01*
X+3327639Y+6059879D02*
X+3099041Y+6059879D01*
X+3099041Y+5729681D01*
X+3327639Y+5729681D01*
X+3327639Y+6059879D01*
X+3073639Y+6059879D02*
X+2845041Y+6059879D01*
X+2845041Y+5729681D01*
X+3073639Y+5729681D01*
X+3073639Y+6059879D01*
X+4597639Y+8029681D02*
X+4564959Y+8029681D01*
X+4636167Y+7958473D01*
X+6328223Y+7958473D01*
X+6428739Y+7857957D01*
X+6428739Y+4802059D01*
X+6097081Y+4470401D01*
X+5168277Y+4470401D01*
X+5123641Y+4515037D01*
X+5123641Y+4820021D01*
X+5085541Y+4820021D01*
X+5085541Y+5150219D01*
X+5314139Y+5150219D01*
X+5314139Y+4820021D01*
X+5276039Y+4820021D01*
X+5276039Y+4622799D01*
X+6033959Y+4622799D01*
X+6276341Y+4865181D01*
X+6276341Y+7794831D01*
X+6265097Y+7806075D01*
X+4573045Y+7806075D01*
X+4407141Y+7971979D01*
X+4407141Y+8029681D01*
X+4369041Y+8029681D01*
X+4369041Y+8359879D01*
X+4597639Y+8359879D01*
X+4597639Y+8029681D01*
X+4089639Y+8029681D02*
X+4058919Y+8029681D01*
X+4058919Y+7918261D01*
X+4212916Y+7764264D01*
X+5967493Y+7764264D01*
X+6175447Y+7686791D01*
X+6202679Y+7647586D01*
X+6202679Y+4918899D01*
X+5911661Y+4627881D01*
X+5422277Y+4627881D01*
X+5377641Y+4672517D01*
X+5377641Y+4820021D01*
X+5339541Y+4820021D01*
X+5339541Y+5150219D01*
X+5568139Y+5150219D01*
X+5568139Y+4820021D01*
X+5530039Y+4820021D01*
X+5530039Y+4780279D01*
X+5848539Y+4780279D01*
X+6050281Y+4982021D01*
X+6050281Y+7570791D01*
X+5940027Y+7611866D01*
X+4149794Y+7611866D01*
X+3906521Y+7855139D01*
X+3906521Y+8029681D01*
X+3861041Y+8029681D01*
X+3861041Y+8359879D01*
X+4089639Y+8359879D01*
X+4089639Y+8029681D01*
X+4089639Y+6059879D02*
X+3861041Y+6059879D01*
X+3861041Y+5729681D01*
X+4089639Y+5729681D01*
X+4089639Y+6059879D01*
X+3581639Y+6059879D02*
X+3353041Y+6059879D01*
X+3353041Y+5729681D01*
X+3581639Y+5729681D01*
X+3581639Y+6059879D01*
X+2819639Y+6059879D02*
X+2591041Y+6059879D01*
X+2591041Y+5729681D01*
X+2819639Y+5729681D01*
X+2819639Y+6059879D01*
X+2565639Y+6059879D02*
X+2337041Y+6059879D01*
X+2337041Y+5729681D01*
X+2565639Y+5729681D01*
X+2565639Y+6059879D01*
X+4343639Y+6059879D02*
X+4115041Y+6059879D01*
X+4115041Y+5729681D01*
X+4343639Y+5729681D01*
X+4343639Y+6059879D01*
X+5867639Y+6059879D02*
X+5639041Y+6059879D01*
X+5639041Y+5729681D01*
X+5867639Y+5729681D01*
X+5867639Y+6059879D01*
X+4577541Y+4820021D02*
X+4806139Y+4820021D01*
X+4806139Y+5150219D01*
X+4577541Y+5150219D01*
X+4577541Y+4820021D01*
X+1124279Y+7282633D02*
X+1124279Y+7177423D01*
X+1049885Y+7103029D01*
X+944675Y+7103029D01*
X+893878Y+7153826D01*
X-193801Y+7153803D01*
X-193801Y+5679662D01*
X-196556Y+5669697D01*
X-492329Y+4599779D01*
X-185421Y+4599779D01*
X-185421Y+4320381D01*
X-718819Y+4320381D01*
X-718819Y+4599779D01*
X-650442Y+4599779D01*
X-346199Y+5700337D01*
X-346199Y+7261562D01*
X-301562Y+7306199D01*
X+893873Y+7306225D01*
X+944675Y+7357027D01*
X+1049885Y+7357027D01*
X+1124279Y+7282633D01*
X+1228459Y+6566225D02*
X+1228459Y+6461015D01*
X+1154065Y+6386621D01*
X+1048855Y+6386621D01*
X+998055Y+6437421D01*
X+345843Y+6437421D01*
X+279619Y+6371197D01*
X+279619Y+6070464D01*
X+282159Y+6067924D01*
X+282159Y+4589779D01*
X+594579Y+4589779D01*
X+594579Y+4310381D01*
X+61181Y+4310381D01*
X+61181Y+4589779D01*
X+129761Y+4589779D01*
X+129761Y+6004794D01*
X+127221Y+6007334D01*
X+127221Y+6434323D01*
X+282717Y+6589819D01*
X+998055Y+6589819D01*
X+1048855Y+6640619D01*
X+1154065Y+6640619D01*
X+1228459Y+6566225D01*
X-1145088Y+8782005D02*
X-1145088Y+8782003D01*
X-900675Y+8537590D01*
X-900675Y+8362378D01*
X-805859Y+8362378D01*
X-805859Y+8057580D01*
X-1110657Y+8057580D01*
X-1110657Y+8179500D01*
X-1216257Y+8179500D01*
X-1440859Y+7954898D01*
X-1440859Y+6655883D01*
X-1391516Y+6606539D01*
X-1319673Y+6606539D01*
X-1245279Y+6532145D01*
X-1245279Y+6426935D01*
X-1283801Y+6388413D01*
X-1283801Y+5073197D01*
X-1635595Y+4721403D01*
X-1633679Y+4719487D01*
X-1633679Y+4561673D01*
X-1745271Y+4450081D01*
X-1903085Y+4450081D01*
X-2014677Y+4561673D01*
X-2014677Y+4719487D01*
X-1903085Y+4831079D01*
X-1745271Y+4831079D01*
X-1743355Y+4829163D01*
X-1436199Y+5136319D01*
X-1436199Y+6363857D01*
X-1499277Y+6426935D01*
X-1499277Y+6498777D01*
X-1499279Y+6498779D01*
X-1499279Y+6426935D01*
X-1573673Y+6352541D01*
X-1678883Y+6352541D01*
X-1729683Y+6403341D01*
X-2040079Y+6403341D01*
X-2040079Y+5699296D01*
X-2256197Y+5483178D01*
X-2256197Y+4831079D01*
X-2253271Y+4831079D01*
X-2141679Y+4719487D01*
X-2141679Y+4561673D01*
X-2253271Y+4450081D01*
X-2411085Y+4450081D01*
X-2522677Y+4561673D01*
X-2522677Y+4719487D01*
X-2411085Y+4831079D01*
X-2408595Y+4831079D01*
X-2408595Y+5546300D01*
X-2192477Y+5762418D01*
X-2192477Y+6511103D01*
X-2147841Y+6555739D01*
X-1810237Y+6555739D01*
X-1966637Y+6712139D01*
X-1966637Y+7208521D01*
X-2030137Y+7208521D01*
X-2030137Y+7780021D01*
X-2254620Y+7780021D01*
X-2264079Y+6903916D01*
X-2279389Y+6883821D01*
X-2583801Y+6484280D01*
X-2583801Y+4144889D01*
X-1566545Y+4127252D01*
X-1392377Y+4301420D01*
X-1392377Y+4450081D01*
X-1395085Y+4450081D01*
X-1506677Y+4561673D01*
X-1506677Y+4719487D01*
X-1395085Y+4831079D01*
X-1237271Y+4831079D01*
X-1125679Y+4719487D01*
X-1125679Y+4561673D01*
X-1237271Y+4450081D01*
X-1239979Y+4450081D01*
X-1239979Y+4238298D01*
X-1492614Y+3985663D01*
X-1521355Y+3974049D01*
X-1536853Y+3974317D01*
X-2692493Y+3994353D01*
X-2736199Y+4038823D01*
X-2736199Y+6535720D01*
X-2415921Y+6956084D01*
X-2405856Y+7888363D01*
X-2361322Y+7932419D01*
X-2066779Y+7932419D01*
X-2130281Y+7995921D01*
X-2586094Y+7995921D01*
X-2662294Y+7919721D01*
X-2788546Y+7919721D01*
X-2877819Y+8008994D01*
X-2877819Y+8135246D01*
X-2788546Y+8224519D01*
X-2662294Y+8224519D01*
X-2586094Y+8148319D01*
X-2067155Y+8148319D01*
X-1981877Y+8063041D01*
X-1981877Y+8547835D01*
X-2032677Y+8598635D01*
X-2032677Y+8703845D01*
X-1958283Y+8778239D01*
X-1853073Y+8778239D01*
X-1778679Y+8703845D01*
X-1778679Y+8598635D01*
X-1829479Y+8547835D01*
X-1829479Y+7995919D01*
X-1750739Y+7995919D01*
X-1750739Y+7678419D01*
X-1749687Y+7678419D01*
X-1725337Y+7706166D01*
X-1725337Y+8289800D01*
X-1599419Y+8415718D01*
X-1055018Y+8415718D01*
X-1053073Y+8413773D01*
X-1053073Y+8474468D01*
X-1252848Y+8674243D01*
X-1465643Y+8674243D01*
X-1524679Y+8674198D01*
X-1524679Y+8598635D01*
X-1599073Y+8524241D01*
X-1704283Y+8524241D01*
X-1778677Y+8598635D01*
X-1778677Y+8703845D01*
X-1727877Y+8754645D01*
X-1727877Y+8781845D01*
X-1683281Y+8826475D01*
X-1466114Y+8826641D01*
X-1189724Y+8826641D01*
X-1145088Y+8782005D01*
X+1156299Y+4640579D02*
X+927701Y+4640579D01*
X+927701Y+4310381D01*
X+1156299Y+4310381D01*
X+1156299Y+4640579D01*
X+5613639Y+8194780D02*
X+5499340Y+8194780D01*
X+5385041Y+8194780D02*
X+5499340Y+8194780D01*
X+5499340Y+8359879D02*
X+5499340Y+8194780D01*
X+5499340Y+8029681D02*
X+5499340Y+8194780D01*
X-185421Y+4460080D02*
X-325120Y+4460080D01*
X-325120Y+4320381D02*
X-325120Y+4460080D01*
X-325120Y+4599779D02*
X-325120Y+4460080D01*
X+594579Y+4450080D02*
X+454880Y+4450080D01*
X+454880Y+4310381D02*
X+454880Y+4450080D01*
X+454880Y+4589779D02*
X+454880Y+4450080D01*
X+1156299Y+4475480D02*
X+1042000Y+4475480D01*
X+927701Y+4475480D02*
X+1042000Y+4475480D01*
X+1042000Y+4640579D02*
X+1042000Y+4475480D01*
X+1042000Y+4310381D02*
X+1042000Y+4475480D01*
D12*
X+3467340Y+8194780D03*
X+5753340Y+8194780D03*
X+4737340Y+5894780D03*
X+2197340Y+5894780D03*
X+3721340Y+5894780D03*
X+4991340Y+5894780D03*
X+3721340Y+8194780D03*
X+5499340Y+8194780D03*
X+5499340Y+5894780D03*
X+4483340Y+5894780D03*
X+2959340Y+8194780D03*
X+5245340Y+8194780D03*
X+3213340Y+8194780D03*
X+4991340Y+8194780D03*
X+2705340Y+8194780D03*
X+2451340Y+8194780D03*
X+3213340Y+5894780D03*
X+2959340Y+5894780D03*
X+4229340Y+8194780D03*
X+4483340Y+8194780D03*
X+3975340Y+8194780D03*
X+4737340Y+8194780D03*
X+2197340Y+8194780D03*
X+3975340Y+5894780D03*
X+3467340Y+5894780D03*
X+2705340Y+5894780D03*
X+2451340Y+5894780D03*
X+5245340Y+5894780D03*
X+4229340Y+5894780D03*
X+5753340Y+5894780D03*
X+3929840Y+4985120D03*
X+4183840Y+4985120D03*
X+4437840Y+4985120D03*
X+4691840Y+4985120D03*
X+4945840Y+4985120D03*
X+5199840Y+4985120D03*
X+5453840Y+4985120D03*
X+5707840Y+4985120D03*
D13*
X+997280Y+7230028D03*
X+2013280Y+7230028D03*
X+1101460Y+6513620D03*
X+2117460Y+6513620D03*
D14*
X-579120Y+4460080D03*
X-325120Y+4460080D03*
X+200880Y+4450080D03*
X+454880Y+4450080D03*
D15*
X-78740Y+8450580D03*
X+429260Y+8450580D03*
X-2332178Y+4640580D03*
X-1824178Y+4640580D03*
X-1316178Y+4640580D03*
D16*
X-958258Y+7681659D03*
X-958258Y+8209979D03*
D13*
X-1626278Y+6479540D03*
X-1372278Y+6479540D03*
D14*
X-1890438Y+7856220D03*
X-1890438Y+7602220D03*
X-1890438Y+7348220D03*
D13*
X-1905678Y+8651240D03*
X-1651678Y+8651240D03*
D17*
X-2725420Y+7056120D03*
X-2725420Y+8072120D03*
D13*
X+2077720Y+6837680D03*
X+3093720Y+6837680D03*
D12*
X+1542000Y+4475480D03*
X+1042000Y+4475480D03*
D18*
X-3200400Y+3385820D02*
X+6608460Y+3385820D01*
X+6608460Y+9565040D01*
X-3200400Y+9565040D01*
X-3200400Y+3385820D01*
M02*
