G04 PROTEUS GERBER X2 FILE*
%TF.GenerationSoftware,Labcenter,Proteus,8.5-SP0-Build22067*%
%TF.CreationDate,2018-02-21T14:13:12+00:00*%
%TF.FileFunction,Copper,L16,Bot*%
%TF.FilePolarity,Positive*%
%TF.Part,Single*%
%FSLAX45Y45*%
%MOMM*%
G01*
%TA.AperFunction,Conductor*%
%ADD10C,0.762000*%
%ADD11C,0.254000*%
%AMDIL002*
4,1,8,
-0.762000,0.965200,-0.457200,1.270000,0.457200,1.270000,0.762000,0.965200,0.762000,-0.965200,
0.457200,-1.270000,-0.457200,-1.270000,-0.762000,-0.965200,-0.762000,0.965200,
0*%
%TA.AperFunction,ComponentPad*%
%ADD12DIL002*%
%ADD13C,1.778000*%
%ADD14R,2.032000X2.032000*%
%ADD15C,3.048000*%
%ADD16R,2.286000X2.286000*%
%ADD17C,2.286000*%
%TA.AperFunction,Profile*%
%ADD18C,0.203200*%
G36*
X-3136900Y+3449320D02*
X+6544960Y+3449320D01*
X+6544960Y+9501540D01*
X-3136900Y+9501540D01*
X-3136900Y+3449320D01*
G37*
%LPC*%
G36*
X+4488994Y+9414832D02*
X+4817560Y+9086266D01*
X+4817560Y+8364959D01*
X+4856719Y+8364959D01*
X+4856719Y+8024601D01*
X+4617961Y+8024601D01*
X+4617961Y+8364959D01*
X+4655002Y+8364959D01*
X+4655002Y+9018936D01*
X+4397857Y+9276081D01*
X+3937194Y+9276081D01*
X+4310619Y+8902656D01*
X+4310619Y+8364959D01*
X+4348719Y+8364959D01*
X+4348719Y+8024601D01*
X+4109961Y+8024601D01*
X+4109961Y+8364959D01*
X+4148061Y+8364959D01*
X+4148061Y+8835326D01*
X+3857166Y+9126221D01*
X+2948474Y+9126221D01*
X+3546221Y+8528474D01*
X+3546221Y+8364959D01*
X+3586719Y+8364959D01*
X+3586719Y+8024601D01*
X+3347961Y+8024601D01*
X+3347961Y+8364959D01*
X+3383663Y+8364959D01*
X+3383663Y+8461140D01*
X+2845582Y+8999221D01*
X+2687963Y+8999221D01*
X+3276599Y+8410585D01*
X+3276599Y+8364959D01*
X+3332719Y+8364959D01*
X+3332719Y+8024601D01*
X+3093961Y+8024601D01*
X+3093961Y+8363335D01*
X+2607935Y+8849361D01*
X+1994306Y+8849361D01*
X+1451279Y+8306334D01*
X+1451279Y+4645659D01*
X+1460721Y+4645659D01*
X+1460721Y+5419585D01*
X+1460968Y+5419832D01*
X+1460968Y+5495326D01*
X+1578721Y+5613079D01*
X+1578721Y+6871347D01*
X+1626333Y+6918959D01*
X+1972211Y+6918959D01*
X+1996441Y+6943189D01*
X+1996441Y+7014406D01*
X+2116061Y+7134026D01*
X+2116061Y+7146021D01*
X+2067989Y+7097949D01*
X+1958571Y+7097949D01*
X+1881201Y+7175319D01*
X+1881201Y+7247161D01*
X+1605281Y+7523081D01*
X+1605281Y+8453765D01*
X+1983095Y+8831579D01*
X+2603514Y+8831579D01*
X+3027309Y+8407784D01*
X+3027309Y+8364959D01*
X+3078719Y+8364959D01*
X+3078719Y+8024601D01*
X+2931196Y+8024601D01*
X+3485277Y+7470520D01*
X+5843829Y+7470520D01*
X+5867321Y+7448338D01*
X+6031917Y+7292922D01*
X+6045199Y+7262113D01*
X+6045199Y+5207533D01*
X+5827219Y+4989554D01*
X+5827219Y+4814941D01*
X+5588461Y+4814941D01*
X+5588461Y+5155299D01*
X+5763074Y+5155299D01*
X+5882641Y+5274867D01*
X+5882641Y+7210301D01*
X+5779211Y+7307962D01*
X+3417947Y+7307962D01*
X+2707047Y+8018862D01*
X+2703699Y+8024601D01*
X+2585961Y+8024601D01*
X+2585961Y+8364959D01*
X+2824719Y+8364959D01*
X+2824719Y+8148265D01*
X+2839961Y+8116189D01*
X+2839961Y+8364959D01*
X+2840246Y+8364959D01*
X+2536184Y+8669021D01*
X+2050425Y+8669021D01*
X+1767839Y+8386435D01*
X+1767839Y+7590415D01*
X+1996147Y+7362107D01*
X+2067989Y+7362107D01*
X+2116061Y+7314035D01*
X+2116061Y+8024601D01*
X+2077961Y+8024601D01*
X+2077961Y+8364959D01*
X+2316719Y+8364959D01*
X+2316719Y+8024601D01*
X+2278619Y+8024601D01*
X+2278619Y+7066690D01*
X+2237614Y+7025685D01*
X+2237613Y+7025686D01*
X+2158999Y+6947072D01*
X+2158999Y+6943189D01*
X+2209799Y+6892389D01*
X+2209799Y+6782971D01*
X+2132429Y+6705601D01*
X+2023011Y+6705601D01*
X+1972211Y+6756401D01*
X+1741279Y+6756401D01*
X+1741279Y+5545745D01*
X+1623526Y+5427992D01*
X+1623526Y+5352294D01*
X+1623279Y+5352047D01*
X+1623279Y+4645659D01*
X+1661379Y+4645659D01*
X+1661379Y+4305301D01*
X+1451279Y+4305301D01*
X+1451279Y+4281444D01*
X+3150179Y+4284910D01*
X+3612561Y+4747292D01*
X+3612561Y+4753667D01*
X+3660173Y+4801279D01*
X+4102561Y+4801279D01*
X+4102561Y+4814941D01*
X+4064461Y+4814941D01*
X+4064461Y+5155299D01*
X+4303219Y+5155299D01*
X+4303219Y+4814941D01*
X+4265119Y+4814941D01*
X+4265119Y+4686333D01*
X+4217507Y+4638721D01*
X+3733878Y+4638721D01*
X+3217647Y+4122490D01*
X+3184078Y+4122422D01*
X+1336449Y+4118654D01*
X+1288721Y+4166285D01*
X+1288721Y+8346737D01*
X+881546Y+7939562D01*
X+115401Y+7939562D01*
X-160019Y+8214982D01*
X-160019Y+8255269D01*
X-274319Y+8369569D01*
X-274319Y+8531591D01*
X-159751Y+8646159D01*
X+2271Y+8646159D01*
X+81281Y+8567149D01*
X+81281Y+8704182D01*
X-428721Y+8704182D01*
X-428721Y+7036993D01*
X-474749Y+6989669D01*
X-507744Y+6988753D01*
X-788721Y+6980948D01*
X-788721Y+4041449D01*
X+4249501Y+4052025D01*
X+4869181Y+4671705D01*
X+4869181Y+4814941D01*
X+4826461Y+4814941D01*
X+4826461Y+5155299D01*
X+5065219Y+5155299D01*
X+5065219Y+4814941D01*
X+5031739Y+4814941D01*
X+5031739Y+4604375D01*
X+4316973Y+3889609D01*
X-903547Y+3878652D01*
X-951279Y+3926285D01*
X-951279Y+7093007D01*
X-905251Y+7140331D01*
X-591279Y+7149052D01*
X-591279Y+7751667D01*
X-745315Y+7597631D01*
X-800779Y+7597631D01*
X-800779Y+7524180D01*
X-1115737Y+7524180D01*
X-1115737Y+7839138D01*
X-800779Y+7839138D01*
X-800779Y+7772059D01*
X-725285Y+7847553D01*
X-725285Y+9087030D01*
X-806514Y+9168259D01*
X-2487730Y+9168259D01*
X-2887981Y+8768008D01*
X-2887981Y+7150747D01*
X-2874633Y+7137399D01*
X-2866850Y+7137399D01*
X-2790650Y+7213599D01*
X-2660190Y+7213599D01*
X-2567941Y+7121350D01*
X-2567941Y+6990890D01*
X-2660190Y+6898641D01*
X-2790650Y+6898641D01*
X-2866850Y+6974841D01*
X-2941967Y+6974841D01*
X-3050539Y+7083413D01*
X-3050539Y+8835342D01*
X-2555064Y+9330817D01*
X-739180Y+9330817D01*
X-562727Y+9154364D01*
X-562727Y+8847680D01*
X-543667Y+8866740D01*
X+196227Y+8866740D01*
X+243839Y+8819128D01*
X+243839Y+8541749D01*
X+347981Y+8645891D01*
X+347981Y+9012565D01*
X+774055Y+9438639D01*
X+4465187Y+9438639D01*
X+4488994Y+9414832D01*
G37*
G36*
X+5872719Y+8364959D02*
X+5633961Y+8364959D01*
X+5633961Y+8024601D01*
X+5872719Y+8024601D01*
X+5872719Y+8364959D01*
G37*
G36*
X+3225799Y+6892389D02*
X+3225799Y+6820547D01*
X+3453892Y+6592454D01*
X+4570569Y+6592454D01*
X+4830617Y+6332406D01*
X+4830617Y+6064959D01*
X+4856719Y+6064959D01*
X+4856719Y+5724601D01*
X+4811190Y+5724601D01*
X+4811190Y+5546033D01*
X+4688872Y+5423715D01*
X+4041422Y+5423715D01*
X+4011119Y+5393412D01*
X+4011119Y+5155299D01*
X+4049219Y+5155299D01*
X+4049219Y+4814941D01*
X+3810461Y+4814941D01*
X+3810461Y+5155299D01*
X+3848561Y+5155299D01*
X+3848561Y+5460746D01*
X+3974088Y+5586273D01*
X+4621538Y+5586273D01*
X+4648632Y+5613367D01*
X+4648632Y+5724601D01*
X+4617961Y+5724601D01*
X+4617961Y+6064959D01*
X+4668059Y+6064959D01*
X+4668059Y+6265072D01*
X+4503235Y+6429896D01*
X+3386558Y+6429896D01*
X+3110853Y+6705601D01*
X+3039011Y+6705601D01*
X+2961641Y+6782971D01*
X+2961641Y+6892389D01*
X+3039011Y+6969759D01*
X+3148429Y+6969759D01*
X+3225799Y+6892389D01*
G37*
G36*
X+2316719Y+6064959D02*
X+2077961Y+6064959D01*
X+2077961Y+5724601D01*
X+2316719Y+5724601D01*
X+2316719Y+6064959D01*
G37*
G36*
X+3840719Y+6064959D02*
X+3601961Y+6064959D01*
X+3601961Y+5724601D01*
X+3840719Y+5724601D01*
X+3840719Y+6064959D01*
G37*
G36*
X+5110719Y+6064959D02*
X+4871961Y+6064959D01*
X+4871961Y+5724601D01*
X+5110719Y+5724601D01*
X+5110719Y+6064959D01*
G37*
G36*
X+3840719Y+8364959D02*
X+3601961Y+8364959D01*
X+3601961Y+8024601D01*
X+3840719Y+8024601D01*
X+3840719Y+8364959D01*
G37*
G36*
X+5618719Y+8364959D02*
X+5379961Y+8364959D01*
X+5379961Y+8024601D01*
X+5618719Y+8024601D01*
X+5618719Y+8364959D01*
G37*
G36*
X+5618719Y+5724601D02*
X+5508445Y+5724601D01*
X+5508445Y+5385410D01*
X+5490893Y+5363238D01*
X+5341338Y+5174320D01*
X+5307798Y+5158094D01*
X+4564362Y+5158094D01*
X+4557219Y+5150951D01*
X+4557219Y+4814941D01*
X+4318461Y+4814941D01*
X+4318461Y+5155299D01*
X+4356561Y+5155299D01*
X+4356561Y+5180185D01*
X+4497028Y+5320652D01*
X+5249851Y+5320652D01*
X+5345887Y+5441964D01*
X+5345887Y+5724601D01*
X+5125961Y+5724601D01*
X+5125961Y+6064959D01*
X+5364719Y+6064959D01*
X+5364719Y+5814951D01*
X+5365127Y+5815359D01*
X+5379961Y+5847050D01*
X+5379961Y+6064959D01*
X+5618719Y+6064959D01*
X+5618719Y+5724601D01*
G37*
G36*
X+4602719Y+6064959D02*
X+4363961Y+6064959D01*
X+4363961Y+5724601D01*
X+4602719Y+5724601D01*
X+4602719Y+6064959D01*
G37*
G36*
X+5364719Y+8364959D02*
X+5125961Y+8364959D01*
X+5125961Y+8024601D01*
X+5364719Y+8024601D01*
X+5364719Y+8364959D01*
G37*
G36*
X+5110719Y+8364959D02*
X+4871961Y+8364959D01*
X+4871961Y+8024601D01*
X+5110719Y+8024601D01*
X+5110719Y+8364959D01*
G37*
G36*
X+2570719Y+8024601D02*
X+2560319Y+8024601D01*
X+2560319Y+6817735D01*
X+2546057Y+6785968D01*
X+2249539Y+6520461D01*
X+2249539Y+6458911D01*
X+2172169Y+6381541D01*
X+2062751Y+6381541D01*
X+1985381Y+6458911D01*
X+1985381Y+6568329D01*
X+2062751Y+6645699D01*
X+2141388Y+6645699D01*
X+2397761Y+6871826D01*
X+2397761Y+8024601D01*
X+2331961Y+8024601D01*
X+2331961Y+8364959D01*
X+2570719Y+8364959D01*
X+2570719Y+8024601D01*
G37*
G36*
X+3332719Y+6064959D02*
X+3093961Y+6064959D01*
X+3093961Y+5724601D01*
X+3332719Y+5724601D01*
X+3332719Y+6064959D01*
G37*
G36*
X+3078719Y+6064959D02*
X+2839961Y+6064959D01*
X+2839961Y+5724601D01*
X+3078719Y+5724601D01*
X+3078719Y+6064959D01*
G37*
G36*
X+4602719Y+8024601D02*
X+4577223Y+8024601D01*
X+4638271Y+7963553D01*
X+6330327Y+7963553D01*
X+6433819Y+7860061D01*
X+6433819Y+4799953D01*
X+6099187Y+4465321D01*
X+5166173Y+4465321D01*
X+5118561Y+4512933D01*
X+5118561Y+4814941D01*
X+5080461Y+4814941D01*
X+5080461Y+5155299D01*
X+5319219Y+5155299D01*
X+5319219Y+4814941D01*
X+5281119Y+4814941D01*
X+5281119Y+4627879D01*
X+5415095Y+4627879D01*
X+5372561Y+4670413D01*
X+5372561Y+4814941D01*
X+5334461Y+4814941D01*
X+5334461Y+5155299D01*
X+5573219Y+5155299D01*
X+5573219Y+4814941D01*
X+5535119Y+4814941D01*
X+5535119Y+4785359D01*
X+5846433Y+4785359D01*
X+6045201Y+4984127D01*
X+6045201Y+7567263D01*
X+5939112Y+7606786D01*
X+4147690Y+7606786D01*
X+3901441Y+7853035D01*
X+3901441Y+8024601D01*
X+3855961Y+8024601D01*
X+3855961Y+8364959D01*
X+4094719Y+8364959D01*
X+4094719Y+8024601D01*
X+4063999Y+8024601D01*
X+4063999Y+7920365D01*
X+4215020Y+7769344D01*
X+5968408Y+7769344D01*
X+6178711Y+7690996D01*
X+6207759Y+7649177D01*
X+6207759Y+4916793D01*
X+5918845Y+4627879D01*
X+6031853Y+4627879D01*
X+6271261Y+4867287D01*
X+6271261Y+7792727D01*
X+6262993Y+7800995D01*
X+4570941Y+7800995D01*
X+4402061Y+7969875D01*
X+4402061Y+8024601D01*
X+4363961Y+8024601D01*
X+4363961Y+8364959D01*
X+4602719Y+8364959D01*
X+4602719Y+8024601D01*
G37*
G36*
X+4094719Y+6064959D02*
X+3855961Y+6064959D01*
X+3855961Y+5724601D01*
X+4094719Y+5724601D01*
X+4094719Y+6064959D01*
G37*
G36*
X+3586719Y+6064959D02*
X+3347961Y+6064959D01*
X+3347961Y+5724601D01*
X+3586719Y+5724601D01*
X+3586719Y+6064959D01*
G37*
G36*
X+2824719Y+6064959D02*
X+2585961Y+6064959D01*
X+2585961Y+5724601D01*
X+2824719Y+5724601D01*
X+2824719Y+6064959D01*
G37*
G36*
X+2570719Y+6064959D02*
X+2331961Y+6064959D01*
X+2331961Y+5724601D01*
X+2570719Y+5724601D01*
X+2570719Y+6064959D01*
G37*
G36*
X+4348719Y+6064959D02*
X+4109961Y+6064959D01*
X+4109961Y+5724601D01*
X+4348719Y+5724601D01*
X+4348719Y+6064959D01*
G37*
G36*
X+5872719Y+6064959D02*
X+5633961Y+6064959D01*
X+5633961Y+5724601D01*
X+5872719Y+5724601D01*
X+5872719Y+6064959D01*
G37*
G36*
X+4572461Y+4814941D02*
X+4811219Y+4814941D01*
X+4811219Y+5155299D01*
X+4572461Y+5155299D01*
X+4572461Y+4814941D01*
G37*
G36*
X+1129359Y+7284737D02*
X+1129359Y+7175319D01*
X+1051989Y+7097949D01*
X+942571Y+7097949D01*
X+891774Y+7148746D01*
X-188721Y+7148723D01*
X-188721Y+5678976D01*
X-191660Y+5668344D01*
X-485654Y+4604859D01*
X-180341Y+4604859D01*
X-180341Y+4315301D01*
X-723899Y+4315301D01*
X-723899Y+4604859D01*
X-654307Y+4604859D01*
X-351279Y+5701025D01*
X-351279Y+7263666D01*
X-303666Y+7311279D01*
X+891769Y+7311305D01*
X+942571Y+7362107D01*
X+1051989Y+7362107D01*
X+1129359Y+7284737D01*
G37*
G36*
X+1233539Y+6568329D02*
X+1233539Y+6458911D01*
X+1156169Y+6381541D01*
X+1046751Y+6381541D01*
X+995951Y+6432341D01*
X+347947Y+6432341D01*
X+284699Y+6369093D01*
X+284699Y+6072568D01*
X+287239Y+6070028D01*
X+287239Y+4594859D01*
X+599659Y+4594859D01*
X+599659Y+4305301D01*
X+56101Y+4305301D01*
X+56101Y+4594859D01*
X+124681Y+4594859D01*
X+124681Y+6002690D01*
X+122141Y+6005230D01*
X+122141Y+6436427D01*
X+280613Y+6594899D01*
X+995951Y+6594899D01*
X+1046751Y+6645699D01*
X+1156169Y+6645699D01*
X+1233539Y+6568329D01*
G37*
G36*
X-1140008Y+8784109D02*
X-1140008Y+8784107D01*
X-895595Y+8539694D01*
X-895595Y+8367458D01*
X-800779Y+8367458D01*
X-800779Y+8052500D01*
X-1115737Y+8052500D01*
X-1115737Y+8174420D01*
X-1214151Y+8174420D01*
X-1435779Y+7952792D01*
X-1435779Y+6657987D01*
X-1389412Y+6611619D01*
X-1317569Y+6611619D01*
X-1240199Y+6534249D01*
X-1240199Y+6424831D01*
X-1278721Y+6386309D01*
X-1278721Y+5071091D01*
X-1628599Y+4721214D01*
X-1628599Y+4559569D01*
X-1743167Y+4445001D01*
X-1905189Y+4445001D01*
X-2019757Y+4559569D01*
X-2019757Y+4721591D01*
X-1905189Y+4836159D01*
X-1743544Y+4836159D01*
X-1441279Y+5138425D01*
X-1441279Y+6361753D01*
X-1499278Y+6419752D01*
X-1571569Y+6347461D01*
X-1680987Y+6347461D01*
X-1731787Y+6398261D01*
X-2034999Y+6398261D01*
X-2034999Y+5697192D01*
X-2251117Y+5481074D01*
X-2251117Y+4836109D01*
X-2136599Y+4721591D01*
X-2136599Y+4559569D01*
X-2251167Y+4445001D01*
X-2413189Y+4445001D01*
X-2527757Y+4559569D01*
X-2527757Y+4721591D01*
X-2413675Y+4835673D01*
X-2413675Y+5548404D01*
X-2197557Y+5764522D01*
X-2197557Y+6513207D01*
X-2149945Y+6560819D01*
X-1822503Y+6560819D01*
X-1971717Y+6710033D01*
X-1971717Y+7203441D01*
X-2035217Y+7203441D01*
X-2035217Y+7774941D01*
X-2076785Y+7774941D01*
X-2251099Y+7602318D01*
X-2259017Y+6902178D01*
X-2275349Y+6880742D01*
X-2578721Y+6482566D01*
X-2578721Y+4357288D01*
X-2371608Y+4146862D01*
X-1568592Y+4132391D01*
X-1397457Y+4303526D01*
X-1397457Y+4445269D01*
X-1511757Y+4559569D01*
X-1511757Y+4721591D01*
X-1397189Y+4836159D01*
X-1235167Y+4836159D01*
X-1120599Y+4721591D01*
X-1120599Y+4559569D01*
X-1234899Y+4445269D01*
X-1234899Y+4236192D01*
X-1489750Y+3981341D01*
X-1520411Y+3968951D01*
X-2439705Y+3984318D01*
X-2487317Y+4031930D01*
X-2741279Y+4290747D01*
X-2741279Y+6537434D01*
X-2420996Y+6957805D01*
X-2413652Y+7670119D01*
X-2366040Y+7717731D01*
X-2143627Y+7937499D01*
X-2079043Y+7937499D01*
X-2132385Y+7990841D01*
X-2583990Y+7990841D01*
X-2660190Y+7914641D01*
X-2790650Y+7914641D01*
X-2882899Y+8006890D01*
X-2882899Y+8137350D01*
X-2790650Y+8229599D01*
X-2660190Y+8229599D01*
X-2583990Y+8153399D01*
X-2065051Y+8153399D01*
X-1986957Y+8075305D01*
X-1986957Y+8545731D01*
X-2037757Y+8596531D01*
X-2037757Y+8705949D01*
X-1960387Y+8783319D01*
X-1850969Y+8783319D01*
X-1778678Y+8711028D01*
X-1732957Y+8756749D01*
X-1732957Y+8783949D01*
X-1685389Y+8831554D01*
X-1465701Y+8831721D01*
X-1187620Y+8831721D01*
X-1140008Y+8784109D01*
G37*
G36*
X+1161379Y+4645659D02*
X+922621Y+4645659D01*
X+922621Y+4305301D01*
X+1161379Y+4305301D01*
X+1161379Y+4645659D01*
G37*
%LPD*%
D10*
X+4737340Y+5894780D02*
X+4729911Y+5887351D01*
X+4729911Y+5579700D01*
X+4655205Y+5504994D01*
X+4007755Y+5504994D01*
X+3929840Y+5427079D01*
X+3929840Y+4985120D01*
X+5499340Y+5894780D02*
X+5432500Y+5767780D01*
X+5427166Y+5762446D01*
X+5427166Y+5413687D01*
X+5289172Y+5239373D01*
X+4530695Y+5239373D01*
X+4437840Y+5146518D01*
X+4437840Y+4985120D01*
X-1626278Y+6479540D02*
X-1890438Y+6743700D01*
X-1890438Y+7348220D01*
X-958258Y+8209979D02*
X-957039Y+8209979D01*
X-923783Y+8209979D02*
X-957039Y+8209979D01*
X-957039Y+8208760D01*
X-941020Y+8192741D01*
X-958258Y+8209979D02*
X-957039Y+8208760D01*
X-1890438Y+7856220D02*
X-1882818Y+7856220D01*
X-1905678Y+7879080D01*
X-1905678Y+8651240D01*
X+454880Y+4450080D02*
X+454880Y+4284980D01*
X+348200Y+4178300D01*
X-43340Y+4178300D01*
X-325120Y+4460080D01*
X-965878Y+8269484D02*
X-965878Y+8218818D01*
X-965878Y+8209979D01*
X-958258Y+8209979D01*
X-1003247Y+8255699D01*
X-957039Y+8209979D02*
X-965878Y+8218818D01*
X-976874Y+8229814D01*
X-976874Y+8258488D01*
X-965878Y+8269484D02*
X-976874Y+8258488D01*
X-979663Y+8255699D01*
X-1003247Y+8255699D01*
X-2725420Y+8072120D02*
X-2098718Y+8072120D01*
X-1984418Y+7957820D01*
X-1890438Y+7856220D01*
X+2197340Y+8194780D02*
X+2197340Y+7100359D01*
X+2180140Y+7083159D01*
X+2077720Y+6980739D01*
X+2077720Y+6837680D01*
X+3093720Y+6837680D02*
X+3420225Y+6511175D01*
X+4536902Y+6511175D01*
X+4749338Y+6298739D01*
X+4749338Y+5906778D01*
X+4737340Y+5894780D01*
X-1003247Y+8255699D02*
X-1033239Y+8286179D01*
X-1086579Y+8339519D01*
X-1567858Y+8339519D01*
X-1649138Y+8258239D01*
X-1649138Y+7677472D01*
X-1715178Y+7602220D01*
X-1890438Y+7602220D01*
X-1003247Y+8255699D02*
X-1247818Y+8255699D01*
X-1517058Y+7986459D01*
X-1517058Y+6624320D01*
X-1372278Y+6479540D01*
X-2725420Y+7056120D02*
X-2908300Y+7056120D01*
X-2969260Y+7117080D01*
X-2969260Y+8801675D01*
X-2521397Y+9249538D01*
X-772847Y+9249538D01*
X-644006Y+9120697D01*
X-644006Y+7813886D01*
X-778982Y+7678910D01*
X-955509Y+7678910D01*
X-958258Y+7681659D01*
X-976874Y+8258488D02*
X-976874Y+8506029D01*
X-1221287Y+8750442D01*
X-1465701Y+8750442D01*
X-1651678Y+8750300D01*
X-1651678Y+8651240D01*
X+4737340Y+8194780D02*
X+4736281Y+8195839D01*
X+4736281Y+9052601D01*
X+4431522Y+9357360D01*
X+807720Y+9357360D01*
X+429260Y+8978900D01*
X+429260Y+8427720D01*
X+429260Y+8450580D01*
X+3467340Y+8194780D02*
X+3464942Y+8197178D01*
X+3464942Y+8494807D01*
X+2879249Y+9080500D01*
X+1450340Y+9080500D01*
X+1267460Y+8897620D01*
X+1267460Y+8440420D01*
X+847881Y+8020841D01*
X+149066Y+8020841D01*
X-78740Y+8248647D01*
X-78740Y+8450580D01*
X+2013280Y+7230028D02*
X+1686560Y+7556748D01*
X+1686560Y+8420100D01*
X+2016760Y+8750300D01*
X+2569849Y+8750300D01*
X+2946030Y+8374119D01*
X+2946030Y+8321780D01*
X+2959340Y+8194780D01*
X+2117460Y+6513620D02*
X+2479040Y+6835140D01*
X+2479040Y+8034020D01*
X+2451340Y+8194780D01*
X-1626278Y+6479540D02*
X-2116278Y+6479540D01*
X-2116278Y+5730857D01*
X-2332396Y+5514739D01*
X-2332396Y+4640798D01*
X-2332178Y+4640580D01*
X+1542000Y+4475480D02*
X+1542000Y+5385816D01*
X+1542247Y+5386063D01*
X+1542247Y+5461659D01*
X+1660000Y+5579412D01*
X+1660000Y+6837680D01*
X+2077720Y+6837680D01*
X+4183840Y+4985120D02*
X+4183840Y+4720000D01*
X+3693840Y+4720000D01*
X+3693840Y+4713627D01*
X+3183913Y+4203700D01*
X+1370000Y+4200000D01*
X+1370000Y+8339999D01*
X+1960641Y+8930640D01*
X+2641600Y+8930640D01*
X+3195320Y+8376920D01*
X+3195320Y+8321780D01*
X+3213340Y+8194780D01*
X+997280Y+7230028D02*
X-270000Y+7230000D01*
X-270000Y+5690000D01*
X-583980Y+4554220D01*
X-579120Y+4460080D01*
X+4229340Y+8194780D02*
X+4229340Y+8868991D01*
X+3890831Y+9207500D01*
X+1242409Y+9207500D01*
X+969284Y+8934375D01*
X+969284Y+8416413D01*
X+720265Y+8167394D01*
X+227305Y+8167394D01*
X+162560Y+8232139D01*
X+162560Y+8785461D01*
X-510000Y+8785461D01*
X-510000Y+7070000D01*
X-870000Y+7060000D01*
X-870000Y+3960000D01*
X+4283237Y+3970817D01*
X+4950460Y+4638040D01*
X+4950460Y+4980500D01*
X+4945840Y+4985120D01*
X-1372278Y+6479540D02*
X-1360000Y+6479540D01*
X-1360000Y+5104758D01*
X-1824178Y+4640580D01*
X+200880Y+4450080D02*
X+205960Y+4450080D01*
X+205960Y+6036359D01*
X+203420Y+6038899D01*
X+203420Y+6402760D01*
X+314280Y+6513620D01*
X+1101460Y+6513620D01*
X+2705340Y+8194780D02*
X+2773073Y+8067780D01*
X+3451612Y+7389241D01*
X+5811520Y+7389241D01*
X+5963920Y+7245341D01*
X+5963920Y+5241200D01*
X+5707840Y+4985120D01*
X+3975340Y+8194780D02*
X+3982720Y+8187400D01*
X+3982720Y+7886700D01*
X+4181355Y+7688065D01*
X+5953760Y+7688065D01*
X+6126480Y+7623719D01*
X+6126480Y+4950460D01*
X+5880100Y+4704080D01*
X+5453840Y+4704080D01*
X+5453840Y+4985120D01*
X+4483340Y+8194780D02*
X+4483340Y+8003540D01*
X+4604606Y+7882274D01*
X+6296660Y+7882274D01*
X+6352540Y+7826394D01*
X+6352540Y+4833620D01*
X+6065520Y+4546600D01*
X+5199840Y+4546600D01*
X+5199840Y+4985120D01*
X-1890438Y+7856220D02*
X-2110219Y+7856220D01*
X-2332373Y+7636452D01*
X-2340000Y+6930000D01*
X-2660000Y+6510000D01*
X-2660000Y+4324000D01*
X-2406038Y+4065597D01*
X-1535533Y+4050504D01*
X-1316178Y+4269859D01*
X-1316178Y+4640580D01*
D11*
X-3136900Y+3449320D02*
X+6544960Y+3449320D01*
X+6544960Y+9501540D01*
X-3136900Y+9501540D01*
X-3136900Y+3449320D01*
X+4488994Y+9414832D02*
X+4817560Y+9086266D01*
X+4817560Y+8364959D01*
X+4856719Y+8364959D01*
X+4856719Y+8024601D01*
X+4617961Y+8024601D01*
X+4617961Y+8364959D01*
X+4655002Y+8364959D01*
X+4655002Y+9018936D01*
X+4397857Y+9276081D01*
X+3937194Y+9276081D01*
X+4310619Y+8902656D01*
X+4310619Y+8364959D01*
X+4348719Y+8364959D01*
X+4348719Y+8024601D01*
X+4109961Y+8024601D01*
X+4109961Y+8364959D01*
X+4148061Y+8364959D01*
X+4148061Y+8835326D01*
X+3857166Y+9126221D01*
X+2948474Y+9126221D01*
X+3546221Y+8528474D01*
X+3546221Y+8364959D01*
X+3586719Y+8364959D01*
X+3586719Y+8024601D01*
X+3347961Y+8024601D01*
X+3347961Y+8364959D01*
X+3383663Y+8364959D01*
X+3383663Y+8461140D01*
X+2845582Y+8999221D01*
X+2687963Y+8999221D01*
X+3276599Y+8410585D01*
X+3276599Y+8364959D01*
X+3332719Y+8364959D01*
X+3332719Y+8024601D01*
X+3093961Y+8024601D01*
X+3093961Y+8363335D01*
X+2607935Y+8849361D01*
X+1994306Y+8849361D01*
X+1451279Y+8306334D01*
X+1451279Y+4645659D01*
X+1460721Y+4645659D01*
X+1460721Y+5419585D01*
X+1460968Y+5419832D01*
X+1460968Y+5495326D01*
X+1578721Y+5613079D01*
X+1578721Y+6871347D01*
X+1626333Y+6918959D01*
X+1972211Y+6918959D01*
X+1996441Y+6943189D01*
X+1996441Y+7014406D01*
X+2116061Y+7134026D01*
X+2116061Y+7146021D01*
X+2067989Y+7097949D01*
X+1958571Y+7097949D01*
X+1881201Y+7175319D01*
X+1881201Y+7247161D01*
X+1605281Y+7523081D01*
X+1605281Y+8453765D01*
X+1983095Y+8831579D01*
X+2603514Y+8831579D01*
X+3027309Y+8407784D01*
X+3027309Y+8364959D01*
X+3078719Y+8364959D01*
X+3078719Y+8024601D01*
X+2931196Y+8024601D01*
X+3485277Y+7470520D01*
X+5843829Y+7470520D01*
X+5867321Y+7448338D01*
X+6031917Y+7292922D01*
X+6045199Y+7262113D01*
X+6045199Y+5207533D01*
X+5827219Y+4989554D01*
X+5827219Y+4814941D01*
X+5588461Y+4814941D01*
X+5588461Y+5155299D01*
X+5763074Y+5155299D01*
X+5882641Y+5274867D01*
X+5882641Y+7210301D01*
X+5779211Y+7307962D01*
X+3417947Y+7307962D01*
X+2707047Y+8018862D01*
X+2703699Y+8024601D01*
X+2585961Y+8024601D01*
X+2585961Y+8364959D01*
X+2824719Y+8364959D01*
X+2824719Y+8148265D01*
X+2839961Y+8116189D01*
X+2839961Y+8364959D01*
X+2840246Y+8364959D01*
X+2536184Y+8669021D01*
X+2050425Y+8669021D01*
X+1767839Y+8386435D01*
X+1767839Y+7590415D01*
X+1996147Y+7362107D01*
X+2067989Y+7362107D01*
X+2116061Y+7314035D01*
X+2116061Y+8024601D01*
X+2077961Y+8024601D01*
X+2077961Y+8364959D01*
X+2316719Y+8364959D01*
X+2316719Y+8024601D01*
X+2278619Y+8024601D01*
X+2278619Y+7066690D01*
X+2237614Y+7025685D01*
X+2237613Y+7025686D01*
X+2158999Y+6947072D01*
X+2158999Y+6943189D01*
X+2209799Y+6892389D01*
X+2209799Y+6782971D01*
X+2132429Y+6705601D01*
X+2023011Y+6705601D01*
X+1972211Y+6756401D01*
X+1741279Y+6756401D01*
X+1741279Y+5545745D01*
X+1623526Y+5427992D01*
X+1623526Y+5352294D01*
X+1623279Y+5352047D01*
X+1623279Y+4645659D01*
X+1661379Y+4645659D01*
X+1661379Y+4305301D01*
X+1451279Y+4305301D01*
X+1451279Y+4281444D01*
X+3150179Y+4284910D01*
X+3612561Y+4747292D01*
X+3612561Y+4753667D01*
X+3660173Y+4801279D01*
X+4102561Y+4801279D01*
X+4102561Y+4814941D01*
X+4064461Y+4814941D01*
X+4064461Y+5155299D01*
X+4303219Y+5155299D01*
X+4303219Y+4814941D01*
X+4265119Y+4814941D01*
X+4265119Y+4686333D01*
X+4217507Y+4638721D01*
X+3733878Y+4638721D01*
X+3217647Y+4122490D01*
X+3184078Y+4122422D01*
X+1336449Y+4118654D01*
X+1288721Y+4166285D01*
X+1288721Y+8346737D01*
X+881546Y+7939562D01*
X+115401Y+7939562D01*
X-160019Y+8214982D01*
X-160019Y+8255269D01*
X-274319Y+8369569D01*
X-274319Y+8531591D01*
X-159751Y+8646159D01*
X+2271Y+8646159D01*
X+81281Y+8567149D01*
X+81281Y+8704182D01*
X-428721Y+8704182D01*
X-428721Y+7036993D01*
X-474749Y+6989669D01*
X-507744Y+6988753D01*
X-788721Y+6980948D01*
X-788721Y+4041449D01*
X+4249501Y+4052025D01*
X+4869181Y+4671705D01*
X+4869181Y+4814941D01*
X+4826461Y+4814941D01*
X+4826461Y+5155299D01*
X+5065219Y+5155299D01*
X+5065219Y+4814941D01*
X+5031739Y+4814941D01*
X+5031739Y+4604375D01*
X+4316973Y+3889609D01*
X-903547Y+3878652D01*
X-951279Y+3926285D01*
X-951279Y+7093007D01*
X-905251Y+7140331D01*
X-591279Y+7149052D01*
X-591279Y+7751667D01*
X-745315Y+7597631D01*
X-800779Y+7597631D01*
X-800779Y+7524180D01*
X-1115737Y+7524180D01*
X-1115737Y+7839138D01*
X-800779Y+7839138D01*
X-800779Y+7772059D01*
X-725285Y+7847553D01*
X-725285Y+9087030D01*
X-806514Y+9168259D01*
X-2487730Y+9168259D01*
X-2887981Y+8768008D01*
X-2887981Y+7150747D01*
X-2874633Y+7137399D01*
X-2866850Y+7137399D01*
X-2790650Y+7213599D01*
X-2660190Y+7213599D01*
X-2567941Y+7121350D01*
X-2567941Y+6990890D01*
X-2660190Y+6898641D01*
X-2790650Y+6898641D01*
X-2866850Y+6974841D01*
X-2941967Y+6974841D01*
X-3050539Y+7083413D01*
X-3050539Y+8835342D01*
X-2555064Y+9330817D01*
X-739180Y+9330817D01*
X-562727Y+9154364D01*
X-562727Y+8847680D01*
X-543667Y+8866740D01*
X+196227Y+8866740D01*
X+243839Y+8819128D01*
X+243839Y+8541749D01*
X+347981Y+8645891D01*
X+347981Y+9012565D01*
X+774055Y+9438639D01*
X+4465187Y+9438639D01*
X+4488994Y+9414832D01*
X+5872719Y+8364959D02*
X+5633961Y+8364959D01*
X+5633961Y+8024601D01*
X+5872719Y+8024601D01*
X+5872719Y+8364959D01*
X+3225799Y+6892389D02*
X+3225799Y+6820547D01*
X+3453892Y+6592454D01*
X+4570569Y+6592454D01*
X+4830617Y+6332406D01*
X+4830617Y+6064959D01*
X+4856719Y+6064959D01*
X+4856719Y+5724601D01*
X+4811190Y+5724601D01*
X+4811190Y+5546033D01*
X+4688872Y+5423715D01*
X+4041422Y+5423715D01*
X+4011119Y+5393412D01*
X+4011119Y+5155299D01*
X+4049219Y+5155299D01*
X+4049219Y+4814941D01*
X+3810461Y+4814941D01*
X+3810461Y+5155299D01*
X+3848561Y+5155299D01*
X+3848561Y+5460746D01*
X+3974088Y+5586273D01*
X+4621538Y+5586273D01*
X+4648632Y+5613367D01*
X+4648632Y+5724601D01*
X+4617961Y+5724601D01*
X+4617961Y+6064959D01*
X+4668059Y+6064959D01*
X+4668059Y+6265072D01*
X+4503235Y+6429896D01*
X+3386558Y+6429896D01*
X+3110853Y+6705601D01*
X+3039011Y+6705601D01*
X+2961641Y+6782971D01*
X+2961641Y+6892389D01*
X+3039011Y+6969759D01*
X+3148429Y+6969759D01*
X+3225799Y+6892389D01*
X+2316719Y+6064959D02*
X+2077961Y+6064959D01*
X+2077961Y+5724601D01*
X+2316719Y+5724601D01*
X+2316719Y+6064959D01*
X+3840719Y+6064959D02*
X+3601961Y+6064959D01*
X+3601961Y+5724601D01*
X+3840719Y+5724601D01*
X+3840719Y+6064959D01*
X+5110719Y+6064959D02*
X+4871961Y+6064959D01*
X+4871961Y+5724601D01*
X+5110719Y+5724601D01*
X+5110719Y+6064959D01*
X+3840719Y+8364959D02*
X+3601961Y+8364959D01*
X+3601961Y+8024601D01*
X+3840719Y+8024601D01*
X+3840719Y+8364959D01*
X+5618719Y+8364959D02*
X+5379961Y+8364959D01*
X+5379961Y+8024601D01*
X+5618719Y+8024601D01*
X+5618719Y+8364959D01*
X+5618719Y+5724601D02*
X+5508445Y+5724601D01*
X+5508445Y+5385410D01*
X+5490893Y+5363238D01*
X+5341338Y+5174320D01*
X+5307798Y+5158094D01*
X+4564362Y+5158094D01*
X+4557219Y+5150951D01*
X+4557219Y+4814941D01*
X+4318461Y+4814941D01*
X+4318461Y+5155299D01*
X+4356561Y+5155299D01*
X+4356561Y+5180185D01*
X+4497028Y+5320652D01*
X+5249851Y+5320652D01*
X+5345887Y+5441964D01*
X+5345887Y+5724601D01*
X+5125961Y+5724601D01*
X+5125961Y+6064959D01*
X+5364719Y+6064959D01*
X+5364719Y+5814951D01*
X+5365127Y+5815359D01*
X+5379961Y+5847050D01*
X+5379961Y+6064959D01*
X+5618719Y+6064959D01*
X+5618719Y+5724601D01*
X+4602719Y+6064959D02*
X+4363961Y+6064959D01*
X+4363961Y+5724601D01*
X+4602719Y+5724601D01*
X+4602719Y+6064959D01*
X+5364719Y+8364959D02*
X+5125961Y+8364959D01*
X+5125961Y+8024601D01*
X+5364719Y+8024601D01*
X+5364719Y+8364959D01*
X+5110719Y+8364959D02*
X+4871961Y+8364959D01*
X+4871961Y+8024601D01*
X+5110719Y+8024601D01*
X+5110719Y+8364959D01*
X+2570719Y+8024601D02*
X+2560319Y+8024601D01*
X+2560319Y+6817735D01*
X+2546057Y+6785968D01*
X+2249539Y+6520461D01*
X+2249539Y+6458911D01*
X+2172169Y+6381541D01*
X+2062751Y+6381541D01*
X+1985381Y+6458911D01*
X+1985381Y+6568329D01*
X+2062751Y+6645699D01*
X+2141388Y+6645699D01*
X+2397761Y+6871826D01*
X+2397761Y+8024601D01*
X+2331961Y+8024601D01*
X+2331961Y+8364959D01*
X+2570719Y+8364959D01*
X+2570719Y+8024601D01*
X+3332719Y+6064959D02*
X+3093961Y+6064959D01*
X+3093961Y+5724601D01*
X+3332719Y+5724601D01*
X+3332719Y+6064959D01*
X+3078719Y+6064959D02*
X+2839961Y+6064959D01*
X+2839961Y+5724601D01*
X+3078719Y+5724601D01*
X+3078719Y+6064959D01*
X+4602719Y+8024601D02*
X+4577223Y+8024601D01*
X+4638271Y+7963553D01*
X+6330327Y+7963553D01*
X+6433819Y+7860061D01*
X+6433819Y+4799953D01*
X+6099187Y+4465321D01*
X+5166173Y+4465321D01*
X+5118561Y+4512933D01*
X+5118561Y+4814941D01*
X+5080461Y+4814941D01*
X+5080461Y+5155299D01*
X+5319219Y+5155299D01*
X+5319219Y+4814941D01*
X+5281119Y+4814941D01*
X+5281119Y+4627879D01*
X+5415095Y+4627879D01*
X+5372561Y+4670413D01*
X+5372561Y+4814941D01*
X+5334461Y+4814941D01*
X+5334461Y+5155299D01*
X+5573219Y+5155299D01*
X+5573219Y+4814941D01*
X+5535119Y+4814941D01*
X+5535119Y+4785359D01*
X+5846433Y+4785359D01*
X+6045201Y+4984127D01*
X+6045201Y+7567263D01*
X+5939112Y+7606786D01*
X+4147690Y+7606786D01*
X+3901441Y+7853035D01*
X+3901441Y+8024601D01*
X+3855961Y+8024601D01*
X+3855961Y+8364959D01*
X+4094719Y+8364959D01*
X+4094719Y+8024601D01*
X+4063999Y+8024601D01*
X+4063999Y+7920365D01*
X+4215020Y+7769344D01*
X+5968408Y+7769344D01*
X+6178711Y+7690996D01*
X+6207759Y+7649177D01*
X+6207759Y+4916793D01*
X+5918845Y+4627879D01*
X+6031853Y+4627879D01*
X+6271261Y+4867287D01*
X+6271261Y+7792727D01*
X+6262993Y+7800995D01*
X+4570941Y+7800995D01*
X+4402061Y+7969875D01*
X+4402061Y+8024601D01*
X+4363961Y+8024601D01*
X+4363961Y+8364959D01*
X+4602719Y+8364959D01*
X+4602719Y+8024601D01*
X+4094719Y+6064959D02*
X+3855961Y+6064959D01*
X+3855961Y+5724601D01*
X+4094719Y+5724601D01*
X+4094719Y+6064959D01*
X+3586719Y+6064959D02*
X+3347961Y+6064959D01*
X+3347961Y+5724601D01*
X+3586719Y+5724601D01*
X+3586719Y+6064959D01*
X+2824719Y+6064959D02*
X+2585961Y+6064959D01*
X+2585961Y+5724601D01*
X+2824719Y+5724601D01*
X+2824719Y+6064959D01*
X+2570719Y+6064959D02*
X+2331961Y+6064959D01*
X+2331961Y+5724601D01*
X+2570719Y+5724601D01*
X+2570719Y+6064959D01*
X+4348719Y+6064959D02*
X+4109961Y+6064959D01*
X+4109961Y+5724601D01*
X+4348719Y+5724601D01*
X+4348719Y+6064959D01*
X+5872719Y+6064959D02*
X+5633961Y+6064959D01*
X+5633961Y+5724601D01*
X+5872719Y+5724601D01*
X+5872719Y+6064959D01*
X+4572461Y+4814941D02*
X+4811219Y+4814941D01*
X+4811219Y+5155299D01*
X+4572461Y+5155299D01*
X+4572461Y+4814941D01*
X+1129359Y+7284737D02*
X+1129359Y+7175319D01*
X+1051989Y+7097949D01*
X+942571Y+7097949D01*
X+891774Y+7148746D01*
X-188721Y+7148723D01*
X-188721Y+5678976D01*
X-191660Y+5668344D01*
X-485654Y+4604859D01*
X-180341Y+4604859D01*
X-180341Y+4315301D01*
X-723899Y+4315301D01*
X-723899Y+4604859D01*
X-654307Y+4604859D01*
X-351279Y+5701025D01*
X-351279Y+7263666D01*
X-303666Y+7311279D01*
X+891769Y+7311305D01*
X+942571Y+7362107D01*
X+1051989Y+7362107D01*
X+1129359Y+7284737D01*
X+1233539Y+6568329D02*
X+1233539Y+6458911D01*
X+1156169Y+6381541D01*
X+1046751Y+6381541D01*
X+995951Y+6432341D01*
X+347947Y+6432341D01*
X+284699Y+6369093D01*
X+284699Y+6072568D01*
X+287239Y+6070028D01*
X+287239Y+4594859D01*
X+599659Y+4594859D01*
X+599659Y+4305301D01*
X+56101Y+4305301D01*
X+56101Y+4594859D01*
X+124681Y+4594859D01*
X+124681Y+6002690D01*
X+122141Y+6005230D01*
X+122141Y+6436427D01*
X+280613Y+6594899D01*
X+995951Y+6594899D01*
X+1046751Y+6645699D01*
X+1156169Y+6645699D01*
X+1233539Y+6568329D01*
X-1140008Y+8784109D02*
X-1140008Y+8784107D01*
X-895595Y+8539694D01*
X-895595Y+8367458D01*
X-800779Y+8367458D01*
X-800779Y+8052500D01*
X-1115737Y+8052500D01*
X-1115737Y+8174420D01*
X-1214151Y+8174420D01*
X-1435779Y+7952792D01*
X-1435779Y+6657987D01*
X-1389412Y+6611619D01*
X-1317569Y+6611619D01*
X-1240199Y+6534249D01*
X-1240199Y+6424831D01*
X-1278721Y+6386309D01*
X-1278721Y+5071091D01*
X-1628599Y+4721214D01*
X-1628599Y+4559569D01*
X-1743167Y+4445001D01*
X-1905189Y+4445001D01*
X-2019757Y+4559569D01*
X-2019757Y+4721591D01*
X-1905189Y+4836159D01*
X-1743544Y+4836159D01*
X-1441279Y+5138425D01*
X-1441279Y+6361753D01*
X-1499278Y+6419752D01*
X-1571569Y+6347461D01*
X-1680987Y+6347461D01*
X-1731787Y+6398261D01*
X-2034999Y+6398261D01*
X-2034999Y+5697192D01*
X-2251117Y+5481074D01*
X-2251117Y+4836109D01*
X-2136599Y+4721591D01*
X-2136599Y+4559569D01*
X-2251167Y+4445001D01*
X-2413189Y+4445001D01*
X-2527757Y+4559569D01*
X-2527757Y+4721591D01*
X-2413675Y+4835673D01*
X-2413675Y+5548404D01*
X-2197557Y+5764522D01*
X-2197557Y+6513207D01*
X-2149945Y+6560819D01*
X-1822503Y+6560819D01*
X-1971717Y+6710033D01*
X-1971717Y+7203441D01*
X-2035217Y+7203441D01*
X-2035217Y+7774941D01*
X-2076785Y+7774941D01*
X-2251099Y+7602318D01*
X-2259017Y+6902178D01*
X-2275349Y+6880742D01*
X-2578721Y+6482566D01*
X-2578721Y+4357288D01*
X-2371608Y+4146862D01*
X-1568592Y+4132391D01*
X-1397457Y+4303526D01*
X-1397457Y+4445269D01*
X-1511757Y+4559569D01*
X-1511757Y+4721591D01*
X-1397189Y+4836159D01*
X-1235167Y+4836159D01*
X-1120599Y+4721591D01*
X-1120599Y+4559569D01*
X-1234899Y+4445269D01*
X-1234899Y+4236192D01*
X-1489750Y+3981341D01*
X-1520411Y+3968951D01*
X-2439705Y+3984318D01*
X-2487317Y+4031930D01*
X-2741279Y+4290747D01*
X-2741279Y+6537434D01*
X-2420996Y+6957805D01*
X-2413652Y+7670119D01*
X-2366040Y+7717731D01*
X-2143627Y+7937499D01*
X-2079043Y+7937499D01*
X-2132385Y+7990841D01*
X-2583990Y+7990841D01*
X-2660190Y+7914641D01*
X-2790650Y+7914641D01*
X-2882899Y+8006890D01*
X-2882899Y+8137350D01*
X-2790650Y+8229599D01*
X-2660190Y+8229599D01*
X-2583990Y+8153399D01*
X-2065051Y+8153399D01*
X-1986957Y+8075305D01*
X-1986957Y+8545731D01*
X-2037757Y+8596531D01*
X-2037757Y+8705949D01*
X-1960387Y+8783319D01*
X-1850969Y+8783319D01*
X-1778678Y+8711028D01*
X-1732957Y+8756749D01*
X-1732957Y+8783949D01*
X-1685389Y+8831554D01*
X-1465701Y+8831721D01*
X-1187620Y+8831721D01*
X-1140008Y+8784109D01*
X+1161379Y+4645659D02*
X+922621Y+4645659D01*
X+922621Y+4305301D01*
X+1161379Y+4305301D01*
X+1161379Y+4645659D01*
X+5618719Y+8194780D02*
X+5499340Y+8194780D01*
X+5379961Y+8194780D02*
X+5499340Y+8194780D01*
X+5499340Y+8364959D02*
X+5499340Y+8194780D01*
X+5499340Y+8024601D02*
X+5499340Y+8194780D01*
X-180341Y+4460080D02*
X-325120Y+4460080D01*
X-325120Y+4315301D02*
X-325120Y+4460080D01*
X-325120Y+4604859D02*
X-325120Y+4460080D01*
X+599659Y+4450080D02*
X+454880Y+4450080D01*
X+454880Y+4305301D02*
X+454880Y+4450080D01*
X+454880Y+4594859D02*
X+454880Y+4450080D01*
X+1161379Y+4475480D02*
X+1042000Y+4475480D01*
X+922621Y+4475480D02*
X+1042000Y+4475480D01*
X+1042000Y+4645659D02*
X+1042000Y+4475480D01*
X+1042000Y+4305301D02*
X+1042000Y+4475480D01*
D12*
X+3467340Y+8194780D03*
X+5753340Y+8194780D03*
X+4737340Y+5894780D03*
X+2197340Y+5894780D03*
X+3721340Y+5894780D03*
X+4991340Y+5894780D03*
X+3721340Y+8194780D03*
X+5499340Y+8194780D03*
X+5499340Y+5894780D03*
X+4483340Y+5894780D03*
X+2959340Y+8194780D03*
X+5245340Y+8194780D03*
X+3213340Y+8194780D03*
X+4991340Y+8194780D03*
X+2705340Y+8194780D03*
X+2451340Y+8194780D03*
X+3213340Y+5894780D03*
X+2959340Y+5894780D03*
X+4229340Y+8194780D03*
X+4483340Y+8194780D03*
X+3975340Y+8194780D03*
X+4737340Y+8194780D03*
X+2197340Y+8194780D03*
X+3975340Y+5894780D03*
X+3467340Y+5894780D03*
X+2705340Y+5894780D03*
X+2451340Y+5894780D03*
X+5245340Y+5894780D03*
X+4229340Y+5894780D03*
X+5753340Y+5894780D03*
X+3929840Y+4985120D03*
X+4183840Y+4985120D03*
X+4437840Y+4985120D03*
X+4691840Y+4985120D03*
X+4945840Y+4985120D03*
X+5199840Y+4985120D03*
X+5453840Y+4985120D03*
X+5707840Y+4985120D03*
D13*
X+997280Y+7230028D03*
X+2013280Y+7230028D03*
X+1101460Y+6513620D03*
X+2117460Y+6513620D03*
D14*
X-579120Y+4460080D03*
X-325120Y+4460080D03*
X+200880Y+4450080D03*
X+454880Y+4450080D03*
D15*
X-78740Y+8450580D03*
X+429260Y+8450580D03*
X-2332178Y+4640580D03*
X-1824178Y+4640580D03*
X-1316178Y+4640580D03*
D16*
X-958258Y+7681659D03*
X-958258Y+8209979D03*
D13*
X-1626278Y+6479540D03*
X-1372278Y+6479540D03*
D14*
X-1890438Y+7856220D03*
X-1890438Y+7602220D03*
X-1890438Y+7348220D03*
D13*
X-1905678Y+8651240D03*
X-1651678Y+8651240D03*
D17*
X-2725420Y+7056120D03*
X-2725420Y+8072120D03*
D13*
X+2077720Y+6837680D03*
X+3093720Y+6837680D03*
D12*
X+1542000Y+4475480D03*
X+1042000Y+4475480D03*
D18*
X-3200400Y+3385820D02*
X+6608460Y+3385820D01*
X+6608460Y+9565040D01*
X-3200400Y+9565040D01*
X-3200400Y+3385820D01*
M02*
