G04 PROTEUS GERBER X2 FILE*
%TF.GenerationSoftware,Labcenter,Proteus,8.5-SP0-Build22067*%
%TF.CreationDate,2018-02-20T23:22:57+00:00*%
%TF.FileFunction,Copper,L16,Bot*%
%TF.FilePolarity,Positive*%
%TF.Part,Single*%
%FSLAX45Y45*%
%MOMM*%
G01*
%TA.AperFunction,Conductor*%
%ADD10C,0.762000*%
%ADD11C,0.254000*%
%AMDIL002*
4,1,8,
-0.762000,0.965200,-0.457200,1.270000,0.457200,1.270000,0.762000,0.965200,0.762000,-0.965200,
0.457200,-1.270000,-0.457200,-1.270000,-0.762000,-0.965200,-0.762000,0.965200,
0*%
%TA.AperFunction,ComponentPad*%
%ADD12DIL002*%
%ADD13R,2.032000X2.032000*%
%ADD14C,1.778000*%
%TA.AperFunction,Profile*%
%ADD15C,0.203200*%
G36*
X-1905000Y+2611120D02*
X+3928760Y+2611120D01*
X+3928760Y+8219440D01*
X-1905000Y+8219440D01*
X-1905000Y+2611120D01*
G37*
%LPC*%
G36*
X+2822479Y+6523260D02*
X+3594239Y+5751500D01*
X+3594097Y+3303814D01*
X+3550327Y+3259334D01*
X+2730867Y+3246121D01*
X+1686080Y+3246121D01*
X+1295497Y+3310625D01*
X+1277122Y+3335694D01*
X+1147945Y+3511936D01*
X+1143444Y+3713481D01*
X+1102361Y+3713481D01*
X+1102361Y+4043679D01*
X+1330959Y+4043679D01*
X+1330959Y+3713481D01*
X+1296548Y+3713481D01*
X+1299369Y+3563135D01*
X+1381664Y+3450855D01*
X+1698571Y+3398519D01*
X+2729659Y+3398519D01*
X+3441705Y+3410000D01*
X+3441712Y+3531536D01*
X+3342386Y+3432210D01*
X+1548051Y+3432210D01*
X+1394461Y+3585800D01*
X+1394461Y+3713481D01*
X+1356361Y+3713481D01*
X+1356361Y+4043679D01*
X+1584959Y+4043679D01*
X+1584959Y+3713481D01*
X+1546859Y+3713481D01*
X+1546859Y+3648922D01*
X+1611173Y+3584608D01*
X+3279260Y+3584608D01*
X+3301466Y+3606814D01*
X+3301466Y+5613563D01*
X+2713354Y+6220740D01*
X+2589392Y+6242226D01*
X+2197232Y+5795646D01*
X+2197232Y+5600699D01*
X+2237739Y+5600699D01*
X+2237739Y+5270501D01*
X+2009141Y+5270501D01*
X+2009141Y+5600699D01*
X+2044834Y+5600699D01*
X+2044834Y+5853060D01*
X+2063777Y+5874632D01*
X+2516195Y+6389832D01*
X+2525684Y+6393181D01*
X+2472501Y+6393181D01*
X+1956601Y+5877281D01*
X+1956601Y+5600699D01*
X+1983739Y+5600699D01*
X+1983739Y+5270501D01*
X+1755141Y+5270501D01*
X+1755141Y+5600699D01*
X+1804203Y+5600699D01*
X+1804203Y+5940403D01*
X+2409379Y+6545579D01*
X+2800160Y+6545579D01*
X+2822479Y+6523260D01*
G37*
G36*
X-530859Y+5270501D02*
X-302261Y+5270501D01*
X-302261Y+5600699D01*
X-530859Y+5600699D01*
X-530859Y+5270501D01*
G37*
G36*
X+485141Y+7570501D02*
X+713739Y+7570501D01*
X+713739Y+7900699D01*
X+485141Y+7900699D01*
X+485141Y+7570501D01*
G37*
G36*
X+3025141Y+7570501D02*
X+3253739Y+7570501D01*
X+3253739Y+7900699D01*
X+3025141Y+7900699D01*
X+3025141Y+7570501D01*
G37*
G36*
X+1501141Y+7570501D02*
X+1729739Y+7570501D01*
X+1729739Y+7900699D01*
X+1501141Y+7900699D01*
X+1501141Y+7570501D01*
G37*
G36*
X+231141Y+7570501D02*
X+459739Y+7570501D01*
X+459739Y+7900699D01*
X+231141Y+7900699D01*
X+231141Y+7570501D01*
G37*
G36*
X+2977687Y+6863620D02*
X+3900860Y+5940447D01*
X+3900860Y+2942109D01*
X+3668932Y+2710181D01*
X+659317Y+2710181D01*
X+507466Y+2862032D01*
X+507466Y+4441934D01*
X+548264Y+4485806D01*
X+685712Y+4495799D01*
X+1880567Y+4495799D01*
X+1699922Y+4647889D01*
X+1156097Y+4928066D01*
X+859920Y+5022591D01*
X+830581Y+5062752D01*
X+830581Y+5270501D01*
X+739141Y+5270501D01*
X+739141Y+5600699D01*
X+967739Y+5600699D01*
X+967739Y+5429061D01*
X+982979Y+5413821D01*
X+982979Y+5143286D01*
X+1214568Y+5069374D01*
X+1220231Y+5066457D01*
X+1654898Y+4842518D01*
X+1570741Y+4911437D01*
X+1301701Y+5082006D01*
X+1282834Y+5116307D01*
X+1282834Y+5270501D01*
X+1247141Y+5270501D01*
X+1247141Y+5600699D01*
X+1475739Y+5600699D01*
X+1475739Y+5270501D01*
X+1435232Y+5270501D01*
X+1435232Y+5177792D01*
X+1660139Y+5035203D01*
X+1986281Y+4768113D01*
X+1986281Y+4855611D01*
X+2060675Y+4930005D01*
X+2132519Y+4930005D01*
X+2306321Y+5103807D01*
X+2306321Y+5270501D01*
X+2263141Y+5270501D01*
X+2263141Y+5600699D01*
X+2491739Y+5600699D01*
X+2491739Y+5270501D01*
X+2458719Y+5270501D01*
X+2458719Y+5040685D01*
X+2240279Y+4822245D01*
X+2240279Y+4750401D01*
X+2165885Y+4676007D01*
X+2098751Y+4676007D01*
X+2802194Y+4099930D01*
X+2816859Y+4068964D01*
X+2816859Y+4043679D01*
X+2854959Y+4043679D01*
X+2854959Y+3713481D01*
X+2626361Y+3713481D01*
X+2626361Y+4043679D01*
X+2630354Y+4043679D01*
X+2557480Y+4103358D01*
X+2559142Y+4043679D01*
X+2600959Y+4043679D01*
X+2600959Y+3713481D01*
X+2372361Y+3713481D01*
X+2372361Y+4043679D01*
X+2406327Y+4043679D01*
X+2406124Y+4053320D01*
X+1981081Y+4411174D01*
X+2308859Y+4083396D01*
X+2308859Y+4043679D01*
X+2346959Y+4043679D01*
X+2346959Y+3713481D01*
X+2118361Y+3713481D01*
X+2118361Y+4043679D01*
X+2133056Y+4043679D01*
X+1833334Y+4343401D01*
X+691233Y+4343401D01*
X+659864Y+4341120D01*
X+659864Y+2925158D01*
X+722443Y+2862579D01*
X+3605806Y+2862579D01*
X+3748462Y+3005235D01*
X+3748462Y+3189918D01*
X+3603070Y+3044526D01*
X+1080156Y+3044526D01*
X+788203Y+3336479D01*
X+788203Y+4188338D01*
X+939789Y+4339924D01*
X+1617857Y+4339924D01*
X+1800859Y+4156922D01*
X+1800859Y+4043679D01*
X+1838959Y+4043679D01*
X+1838959Y+3713481D01*
X+1610361Y+3713481D01*
X+1610361Y+4043679D01*
X+1648461Y+4043679D01*
X+1648461Y+4093800D01*
X+1554735Y+4187526D01*
X+1002911Y+4187526D01*
X+940601Y+4125216D01*
X+940601Y+3399601D01*
X+1143278Y+3196924D01*
X+3539944Y+3196924D01*
X+3602255Y+3259235D01*
X+3602255Y+5749478D01*
X+2770592Y+6581141D01*
X+2407263Y+6581141D01*
X+1689232Y+5863110D01*
X+1689232Y+5600699D01*
X+1729739Y+5600699D01*
X+1729739Y+5270501D01*
X+1501141Y+5270501D01*
X+1501141Y+5414591D01*
X+1485084Y+5460061D01*
X+1501141Y+5476118D01*
X+1501141Y+5600699D01*
X+1536834Y+5600699D01*
X+1536834Y+5926232D01*
X+2344141Y+6733539D01*
X+2833714Y+6733539D01*
X+3748462Y+5818791D01*
X+3748462Y+5877325D01*
X+2892246Y+6733541D01*
X+1998189Y+6733541D01*
X+1183639Y+5918991D01*
X+1183639Y+5600699D01*
X+1221739Y+5600699D01*
X+1221739Y+5270501D01*
X+993141Y+5270501D01*
X+993141Y+5600699D01*
X+1031241Y+5600699D01*
X+1031241Y+5982113D01*
X+1935067Y+6885939D01*
X+2955368Y+6885939D01*
X+2977687Y+6863620D01*
G37*
G36*
X-276859Y+5270501D02*
X-48261Y+5270501D01*
X-48261Y+5600699D01*
X-276859Y+5600699D01*
X-276859Y+5270501D01*
G37*
G36*
X-276859Y+7570501D02*
X-48261Y+7570501D01*
X-48261Y+7900699D01*
X-276859Y+7900699D01*
X-276859Y+7570501D01*
G37*
G36*
X+739141Y+7570501D02*
X+967739Y+7570501D01*
X+967739Y+7900699D01*
X+739141Y+7900699D01*
X+739141Y+7570501D01*
G37*
G36*
X-22859Y+5270501D02*
X+205739Y+5270501D01*
X+205739Y+5600699D01*
X-22859Y+5600699D01*
X-22859Y+5270501D01*
G37*
G36*
X+231141Y+5270501D02*
X+459739Y+5270501D01*
X+459739Y+5600699D01*
X+231141Y+5600699D01*
X+231141Y+5270501D01*
G37*
G36*
X+2745739Y+5270501D02*
X+2705232Y+5270501D01*
X+2705232Y+4676285D01*
X+3070859Y+4310658D01*
X+3070859Y+4043679D01*
X+3108959Y+4043679D01*
X+3108959Y+3713481D01*
X+2880361Y+3713481D01*
X+2880361Y+4043679D01*
X+2918461Y+4043679D01*
X+2918461Y+4247536D01*
X+2552834Y+4613163D01*
X+2552834Y+5270501D01*
X+2517141Y+5270501D01*
X+2517141Y+5600699D01*
X+2745739Y+5600699D01*
X+2745739Y+5270501D01*
G37*
G36*
X+2791459Y+6110505D02*
X+2791459Y+6038661D01*
X+2963472Y+5866648D01*
X+2963472Y+5600699D01*
X+2999739Y+5600699D01*
X+2999739Y+5270501D01*
X+2771141Y+5270501D01*
X+2771141Y+5600699D01*
X+2811074Y+5600699D01*
X+2811074Y+5803526D01*
X+2683699Y+5930901D01*
X+2611855Y+5930901D01*
X+2537461Y+6005295D01*
X+2537461Y+6110505D01*
X+2611855Y+6184899D01*
X+2717065Y+6184899D01*
X+2791459Y+6110505D01*
G37*
G36*
X+2009141Y+7570501D02*
X+2237739Y+7570501D01*
X+2237739Y+7900699D01*
X+2009141Y+7900699D01*
X+2009141Y+7570501D01*
G37*
G36*
X+2263141Y+7570501D02*
X+2491739Y+7570501D01*
X+2491739Y+7900699D01*
X+2263141Y+7900699D01*
X+2263141Y+7570501D01*
G37*
G36*
X+485141Y+5270501D02*
X+713739Y+5270501D01*
X+713739Y+5600699D01*
X+485141Y+5600699D01*
X+485141Y+5270501D01*
G37*
G36*
X+3025141Y+5270501D02*
X+3253739Y+5270501D01*
X+3253739Y+5600699D01*
X+3025141Y+5600699D01*
X+3025141Y+5270501D01*
G37*
G36*
X+1247141Y+7570501D02*
X+1475739Y+7570501D01*
X+1475739Y+7900699D01*
X+1247141Y+7900699D01*
X+1247141Y+7570501D01*
G37*
G36*
X+1755141Y+7570501D02*
X+1983739Y+7570501D01*
X+1983739Y+7900699D01*
X+1755141Y+7900699D01*
X+1755141Y+7570501D01*
G37*
G36*
X+2517141Y+7570501D02*
X+2745739Y+7570501D01*
X+2745739Y+7900699D01*
X+2517141Y+7900699D01*
X+2517141Y+7570501D01*
G37*
G36*
X+2771141Y+7570501D02*
X+2999739Y+7570501D01*
X+2999739Y+7900699D01*
X+2771141Y+7900699D01*
X+2771141Y+7570501D01*
G37*
G36*
X-22859Y+7570501D02*
X+205739Y+7570501D01*
X+205739Y+7900699D01*
X-22859Y+7900699D01*
X-22859Y+7570501D01*
G37*
G36*
X+993141Y+7570501D02*
X+1221739Y+7570501D01*
X+1221739Y+7900699D01*
X+993141Y+7900699D01*
X+993141Y+7570501D01*
G37*
G36*
X-530859Y+7570501D02*
X-302261Y+7570501D01*
X-302261Y+7900699D01*
X-530859Y+7900699D01*
X-530859Y+7570501D01*
G37*
G36*
X+1864361Y+3713481D02*
X+2092959Y+3713481D01*
X+2092959Y+4043679D01*
X+1864361Y+4043679D01*
X+1864361Y+3713481D01*
G37*
G36*
X+1224279Y+4855611D02*
X+1224279Y+4750401D01*
X+1149885Y+4676007D01*
X+1044675Y+4676007D01*
X+993875Y+4726807D01*
X-127453Y+4726807D01*
X-690829Y+4163431D01*
X-690829Y+3134359D01*
X-365761Y+3134359D01*
X-365761Y+2854961D01*
X-899159Y+2854961D01*
X-899159Y+3134359D01*
X-843227Y+3134359D01*
X-843227Y+4226553D01*
X-190575Y+4879205D01*
X+993875Y+4879205D01*
X+1044675Y+4930005D01*
X+1149885Y+4930005D01*
X+1224279Y+4855611D01*
G37*
G36*
X+2791459Y+7126505D02*
X+2791459Y+7021295D01*
X+2717065Y+6946901D01*
X+2611855Y+6946901D01*
X+2575646Y+6983110D01*
X+323602Y+6983110D01*
X-1506221Y+5153287D01*
X-1506221Y+3121659D01*
X-1188721Y+3121659D01*
X-1188721Y+2842261D01*
X-1722119Y+2842261D01*
X-1722119Y+3121659D01*
X-1658619Y+3121659D01*
X-1658619Y+5216409D01*
X+260480Y+7135508D01*
X+2546464Y+7135508D01*
X+2611855Y+7200899D01*
X+2717065Y+7200899D01*
X+2791459Y+7126505D01*
G37*
%LPD*%
D10*
X+2994660Y+3878580D02*
X+2994660Y+4279097D01*
X+2629033Y+4644724D01*
X+2629033Y+5433193D01*
X+2631440Y+5435600D01*
X+2740660Y+3878580D02*
X+2740660Y+4051834D01*
X+1615440Y+4973320D01*
X+1359033Y+5135880D01*
X+1359033Y+5433193D01*
X+1361440Y+5435600D01*
X+2486660Y+3878580D02*
X+2481580Y+4089400D01*
X+1742440Y+4711700D01*
X+1185333Y+4998720D01*
X+906780Y+5087620D01*
X+906780Y+5382260D01*
X+853440Y+5435600D01*
X+2113280Y+4803006D02*
X+2382520Y+5072246D01*
X+2382520Y+5308600D01*
X+2377440Y+5435600D01*
X+1097280Y+4803006D02*
X-159014Y+4803006D01*
X-767028Y+4194992D01*
X-767028Y+3002228D01*
X-759460Y+2994660D01*
X+2232660Y+3878580D02*
X+2232660Y+4051835D01*
X+1864895Y+4419600D01*
X+688473Y+4419600D01*
X+583665Y+4411980D01*
X+583665Y+2893595D01*
X+690880Y+2786380D01*
X+3637369Y+2786380D01*
X+3824661Y+2973672D01*
X+3824661Y+5908886D01*
X+2923807Y+6809740D01*
X+1966628Y+6809740D01*
X+1107440Y+5950552D01*
X+1107440Y+5435600D01*
X+1724660Y+3878580D02*
X+1724660Y+4125361D01*
X+1586296Y+4263725D01*
X+971350Y+4263725D01*
X+864402Y+4156777D01*
X+864402Y+3368040D01*
X+1111717Y+3120725D01*
X+3571507Y+3120725D01*
X+3678454Y+3227672D01*
X+3678454Y+5781039D01*
X+2802153Y+6657340D01*
X+2375702Y+6657340D01*
X+1613033Y+5894671D01*
X+1613033Y+5480250D01*
X+1572928Y+5440145D01*
X+1615440Y+5435600D01*
X+1216660Y+3878580D02*
X+1223636Y+3537564D01*
X+1338580Y+3380740D01*
X+1692326Y+3322320D01*
X+2730267Y+3322320D01*
X+3517900Y+3335020D01*
X+3518038Y+5719941D01*
X+2768599Y+6469380D01*
X+2440940Y+6469380D01*
X+1880402Y+5908842D01*
X+1880402Y+5393356D01*
X+1860349Y+5373303D01*
X+1869440Y+5435600D01*
X+1470660Y+3878580D02*
X+1470660Y+3617361D01*
X+1579612Y+3508409D01*
X+3310823Y+3508409D01*
X+3377665Y+3575251D01*
X+3377665Y+5644415D01*
X+2750820Y+6291580D01*
X+2560320Y+6324600D01*
X+2121033Y+5824353D01*
X+2121033Y+5438007D01*
X+2123440Y+5435600D01*
X+2664460Y+6057900D02*
X+2887273Y+5835087D01*
X+2887273Y+5807147D01*
X+2887273Y+5437433D01*
X+2885440Y+5435600D01*
X-1582420Y+2981960D02*
X-1582420Y+5184848D01*
X+292041Y+7059309D01*
X+2649869Y+7059309D01*
X+2664460Y+7073900D01*
D11*
X-1905000Y+2611120D02*
X+3928760Y+2611120D01*
X+3928760Y+8219440D01*
X-1905000Y+8219440D01*
X-1905000Y+2611120D01*
X+2822479Y+6523260D02*
X+3594239Y+5751500D01*
X+3594097Y+3303814D01*
X+3550327Y+3259334D01*
X+2730867Y+3246121D01*
X+1686080Y+3246121D01*
X+1295497Y+3310625D01*
X+1277122Y+3335694D01*
X+1147945Y+3511936D01*
X+1143444Y+3713481D01*
X+1102361Y+3713481D01*
X+1102361Y+4043679D01*
X+1330959Y+4043679D01*
X+1330959Y+3713481D01*
X+1296548Y+3713481D01*
X+1299369Y+3563135D01*
X+1381664Y+3450855D01*
X+1698571Y+3398519D01*
X+2729659Y+3398519D01*
X+3441705Y+3410000D01*
X+3441712Y+3531536D01*
X+3342386Y+3432210D01*
X+1548051Y+3432210D01*
X+1394461Y+3585800D01*
X+1394461Y+3713481D01*
X+1356361Y+3713481D01*
X+1356361Y+4043679D01*
X+1584959Y+4043679D01*
X+1584959Y+3713481D01*
X+1546859Y+3713481D01*
X+1546859Y+3648922D01*
X+1611173Y+3584608D01*
X+3279260Y+3584608D01*
X+3301466Y+3606814D01*
X+3301466Y+5613563D01*
X+2713354Y+6220740D01*
X+2589392Y+6242226D01*
X+2197232Y+5795646D01*
X+2197232Y+5600699D01*
X+2237739Y+5600699D01*
X+2237739Y+5270501D01*
X+2009141Y+5270501D01*
X+2009141Y+5600699D01*
X+2044834Y+5600699D01*
X+2044834Y+5853060D01*
X+2063777Y+5874632D01*
X+2516195Y+6389832D01*
X+2525684Y+6393181D01*
X+2472501Y+6393181D01*
X+1956601Y+5877281D01*
X+1956601Y+5600699D01*
X+1983739Y+5600699D01*
X+1983739Y+5270501D01*
X+1755141Y+5270501D01*
X+1755141Y+5600699D01*
X+1804203Y+5600699D01*
X+1804203Y+5940403D01*
X+2409379Y+6545579D01*
X+2800160Y+6545579D01*
X+2822479Y+6523260D01*
X-530859Y+5270501D02*
X-302261Y+5270501D01*
X-302261Y+5600699D01*
X-530859Y+5600699D01*
X-530859Y+5270501D01*
X+485141Y+7570501D02*
X+713739Y+7570501D01*
X+713739Y+7900699D01*
X+485141Y+7900699D01*
X+485141Y+7570501D01*
X+3025141Y+7570501D02*
X+3253739Y+7570501D01*
X+3253739Y+7900699D01*
X+3025141Y+7900699D01*
X+3025141Y+7570501D01*
X+1501141Y+7570501D02*
X+1729739Y+7570501D01*
X+1729739Y+7900699D01*
X+1501141Y+7900699D01*
X+1501141Y+7570501D01*
X+231141Y+7570501D02*
X+459739Y+7570501D01*
X+459739Y+7900699D01*
X+231141Y+7900699D01*
X+231141Y+7570501D01*
X+2977687Y+6863620D02*
X+3900860Y+5940447D01*
X+3900860Y+2942109D01*
X+3668932Y+2710181D01*
X+659317Y+2710181D01*
X+507466Y+2862032D01*
X+507466Y+4441934D01*
X+548264Y+4485806D01*
X+685712Y+4495799D01*
X+1880567Y+4495799D01*
X+1699922Y+4647889D01*
X+1156097Y+4928066D01*
X+859920Y+5022591D01*
X+830581Y+5062752D01*
X+830581Y+5270501D01*
X+739141Y+5270501D01*
X+739141Y+5600699D01*
X+967739Y+5600699D01*
X+967739Y+5429061D01*
X+982979Y+5413821D01*
X+982979Y+5143286D01*
X+1214568Y+5069374D01*
X+1220231Y+5066457D01*
X+1654898Y+4842518D01*
X+1570741Y+4911437D01*
X+1301701Y+5082006D01*
X+1282834Y+5116307D01*
X+1282834Y+5270501D01*
X+1247141Y+5270501D01*
X+1247141Y+5600699D01*
X+1475739Y+5600699D01*
X+1475739Y+5270501D01*
X+1435232Y+5270501D01*
X+1435232Y+5177792D01*
X+1660139Y+5035203D01*
X+1986281Y+4768113D01*
X+1986281Y+4855611D01*
X+2060675Y+4930005D01*
X+2132519Y+4930005D01*
X+2306321Y+5103807D01*
X+2306321Y+5270501D01*
X+2263141Y+5270501D01*
X+2263141Y+5600699D01*
X+2491739Y+5600699D01*
X+2491739Y+5270501D01*
X+2458719Y+5270501D01*
X+2458719Y+5040685D01*
X+2240279Y+4822245D01*
X+2240279Y+4750401D01*
X+2165885Y+4676007D01*
X+2098751Y+4676007D01*
X+2802194Y+4099930D01*
X+2816859Y+4068964D01*
X+2816859Y+4043679D01*
X+2854959Y+4043679D01*
X+2854959Y+3713481D01*
X+2626361Y+3713481D01*
X+2626361Y+4043679D01*
X+2630354Y+4043679D01*
X+2557480Y+4103358D01*
X+2559142Y+4043679D01*
X+2600959Y+4043679D01*
X+2600959Y+3713481D01*
X+2372361Y+3713481D01*
X+2372361Y+4043679D01*
X+2406327Y+4043679D01*
X+2406124Y+4053320D01*
X+1981081Y+4411174D01*
X+2308859Y+4083396D01*
X+2308859Y+4043679D01*
X+2346959Y+4043679D01*
X+2346959Y+3713481D01*
X+2118361Y+3713481D01*
X+2118361Y+4043679D01*
X+2133056Y+4043679D01*
X+1833334Y+4343401D01*
X+691233Y+4343401D01*
X+659864Y+4341120D01*
X+659864Y+2925158D01*
X+722443Y+2862579D01*
X+3605806Y+2862579D01*
X+3748462Y+3005235D01*
X+3748462Y+3189918D01*
X+3603070Y+3044526D01*
X+1080156Y+3044526D01*
X+788203Y+3336479D01*
X+788203Y+4188338D01*
X+939789Y+4339924D01*
X+1617857Y+4339924D01*
X+1800859Y+4156922D01*
X+1800859Y+4043679D01*
X+1838959Y+4043679D01*
X+1838959Y+3713481D01*
X+1610361Y+3713481D01*
X+1610361Y+4043679D01*
X+1648461Y+4043679D01*
X+1648461Y+4093800D01*
X+1554735Y+4187526D01*
X+1002911Y+4187526D01*
X+940601Y+4125216D01*
X+940601Y+3399601D01*
X+1143278Y+3196924D01*
X+3539944Y+3196924D01*
X+3602255Y+3259235D01*
X+3602255Y+5749478D01*
X+2770592Y+6581141D01*
X+2407263Y+6581141D01*
X+1689232Y+5863110D01*
X+1689232Y+5600699D01*
X+1729739Y+5600699D01*
X+1729739Y+5270501D01*
X+1501141Y+5270501D01*
X+1501141Y+5414591D01*
X+1485084Y+5460061D01*
X+1501141Y+5476118D01*
X+1501141Y+5600699D01*
X+1536834Y+5600699D01*
X+1536834Y+5926232D01*
X+2344141Y+6733539D01*
X+2833714Y+6733539D01*
X+3748462Y+5818791D01*
X+3748462Y+5877325D01*
X+2892246Y+6733541D01*
X+1998189Y+6733541D01*
X+1183639Y+5918991D01*
X+1183639Y+5600699D01*
X+1221739Y+5600699D01*
X+1221739Y+5270501D01*
X+993141Y+5270501D01*
X+993141Y+5600699D01*
X+1031241Y+5600699D01*
X+1031241Y+5982113D01*
X+1935067Y+6885939D01*
X+2955368Y+6885939D01*
X+2977687Y+6863620D01*
X-276859Y+5270501D02*
X-48261Y+5270501D01*
X-48261Y+5600699D01*
X-276859Y+5600699D01*
X-276859Y+5270501D01*
X-276859Y+7570501D02*
X-48261Y+7570501D01*
X-48261Y+7900699D01*
X-276859Y+7900699D01*
X-276859Y+7570501D01*
X+739141Y+7570501D02*
X+967739Y+7570501D01*
X+967739Y+7900699D01*
X+739141Y+7900699D01*
X+739141Y+7570501D01*
X-22859Y+5270501D02*
X+205739Y+5270501D01*
X+205739Y+5600699D01*
X-22859Y+5600699D01*
X-22859Y+5270501D01*
X+231141Y+5270501D02*
X+459739Y+5270501D01*
X+459739Y+5600699D01*
X+231141Y+5600699D01*
X+231141Y+5270501D01*
X+2745739Y+5270501D02*
X+2705232Y+5270501D01*
X+2705232Y+4676285D01*
X+3070859Y+4310658D01*
X+3070859Y+4043679D01*
X+3108959Y+4043679D01*
X+3108959Y+3713481D01*
X+2880361Y+3713481D01*
X+2880361Y+4043679D01*
X+2918461Y+4043679D01*
X+2918461Y+4247536D01*
X+2552834Y+4613163D01*
X+2552834Y+5270501D01*
X+2517141Y+5270501D01*
X+2517141Y+5600699D01*
X+2745739Y+5600699D01*
X+2745739Y+5270501D01*
X+2791459Y+6110505D02*
X+2791459Y+6038661D01*
X+2963472Y+5866648D01*
X+2963472Y+5600699D01*
X+2999739Y+5600699D01*
X+2999739Y+5270501D01*
X+2771141Y+5270501D01*
X+2771141Y+5600699D01*
X+2811074Y+5600699D01*
X+2811074Y+5803526D01*
X+2683699Y+5930901D01*
X+2611855Y+5930901D01*
X+2537461Y+6005295D01*
X+2537461Y+6110505D01*
X+2611855Y+6184899D01*
X+2717065Y+6184899D01*
X+2791459Y+6110505D01*
X+2009141Y+7570501D02*
X+2237739Y+7570501D01*
X+2237739Y+7900699D01*
X+2009141Y+7900699D01*
X+2009141Y+7570501D01*
X+2263141Y+7570501D02*
X+2491739Y+7570501D01*
X+2491739Y+7900699D01*
X+2263141Y+7900699D01*
X+2263141Y+7570501D01*
X+485141Y+5270501D02*
X+713739Y+5270501D01*
X+713739Y+5600699D01*
X+485141Y+5600699D01*
X+485141Y+5270501D01*
X+3025141Y+5270501D02*
X+3253739Y+5270501D01*
X+3253739Y+5600699D01*
X+3025141Y+5600699D01*
X+3025141Y+5270501D01*
X+1247141Y+7570501D02*
X+1475739Y+7570501D01*
X+1475739Y+7900699D01*
X+1247141Y+7900699D01*
X+1247141Y+7570501D01*
X+1755141Y+7570501D02*
X+1983739Y+7570501D01*
X+1983739Y+7900699D01*
X+1755141Y+7900699D01*
X+1755141Y+7570501D01*
X+2517141Y+7570501D02*
X+2745739Y+7570501D01*
X+2745739Y+7900699D01*
X+2517141Y+7900699D01*
X+2517141Y+7570501D01*
X+2771141Y+7570501D02*
X+2999739Y+7570501D01*
X+2999739Y+7900699D01*
X+2771141Y+7900699D01*
X+2771141Y+7570501D01*
X-22859Y+7570501D02*
X+205739Y+7570501D01*
X+205739Y+7900699D01*
X-22859Y+7900699D01*
X-22859Y+7570501D01*
X+993141Y+7570501D02*
X+1221739Y+7570501D01*
X+1221739Y+7900699D01*
X+993141Y+7900699D01*
X+993141Y+7570501D01*
X-530859Y+7570501D02*
X-302261Y+7570501D01*
X-302261Y+7900699D01*
X-530859Y+7900699D01*
X-530859Y+7570501D01*
X+1864361Y+3713481D02*
X+2092959Y+3713481D01*
X+2092959Y+4043679D01*
X+1864361Y+4043679D01*
X+1864361Y+3713481D01*
X+1224279Y+4855611D02*
X+1224279Y+4750401D01*
X+1149885Y+4676007D01*
X+1044675Y+4676007D01*
X+993875Y+4726807D01*
X-127453Y+4726807D01*
X-690829Y+4163431D01*
X-690829Y+3134359D01*
X-365761Y+3134359D01*
X-365761Y+2854961D01*
X-899159Y+2854961D01*
X-899159Y+3134359D01*
X-843227Y+3134359D01*
X-843227Y+4226553D01*
X-190575Y+4879205D01*
X+993875Y+4879205D01*
X+1044675Y+4930005D01*
X+1149885Y+4930005D01*
X+1224279Y+4855611D01*
X+2791459Y+7126505D02*
X+2791459Y+7021295D01*
X+2717065Y+6946901D01*
X+2611855Y+6946901D01*
X+2575646Y+6983110D01*
X+323602Y+6983110D01*
X-1506221Y+5153287D01*
X-1506221Y+3121659D01*
X-1188721Y+3121659D01*
X-1188721Y+2842261D01*
X-1722119Y+2842261D01*
X-1722119Y+3121659D01*
X-1658619Y+3121659D01*
X-1658619Y+5216409D01*
X+260480Y+7135508D01*
X+2546464Y+7135508D01*
X+2611855Y+7200899D01*
X+2717065Y+7200899D01*
X+2791459Y+7126505D01*
X-276859Y+5435600D02*
X-162560Y+5435600D01*
X-48261Y+5435600D02*
X-162560Y+5435600D01*
X-162560Y+5270501D02*
X-162560Y+5435600D01*
X-162560Y+5600699D02*
X-162560Y+5435600D01*
X-365761Y+2994660D02*
X-505460Y+2994660D01*
X-505460Y+2854961D02*
X-505460Y+2994660D01*
X-505460Y+3134359D02*
X-505460Y+2994660D01*
X-1188721Y+2981960D02*
X-1328420Y+2981960D01*
X-1328420Y+2842261D02*
X-1328420Y+2981960D01*
X-1328420Y+3121659D02*
X-1328420Y+2981960D01*
D12*
X+1869440Y+5435600D03*
X-416560Y+5435600D03*
X+599440Y+7735600D03*
X+3139440Y+7735600D03*
X+1615440Y+7735600D03*
X+345440Y+7735600D03*
X+1615440Y+5435600D03*
X-162560Y+5435600D03*
X-162560Y+7735600D03*
X+853440Y+7735600D03*
X+2377440Y+5435600D03*
X+91440Y+5435600D03*
X+2123440Y+5435600D03*
X+345440Y+5435600D03*
X+2631440Y+5435600D03*
X+2885440Y+5435600D03*
X+2123440Y+7735600D03*
X+2377440Y+7735600D03*
X+1107440Y+5435600D03*
X+853440Y+5435600D03*
X+1361440Y+5435600D03*
X+599440Y+5435600D03*
X+3139440Y+5435600D03*
X+1361440Y+7735600D03*
X+1869440Y+7735600D03*
X+2631440Y+7735600D03*
X+2885440Y+7735600D03*
X+91440Y+7735600D03*
X+1107440Y+7735600D03*
X-416560Y+7735600D03*
X+1216660Y+3878580D03*
X+1470660Y+3878580D03*
X+1724660Y+3878580D03*
X+1978660Y+3878580D03*
X+2232660Y+3878580D03*
X+2486660Y+3878580D03*
X+2740660Y+3878580D03*
X+2994660Y+3878580D03*
D13*
X-759460Y+2994660D03*
X-505460Y+2994660D03*
D14*
X+2664460Y+7073900D03*
X+2664460Y+6057900D03*
D13*
X-1582420Y+2981960D03*
X-1328420Y+2981960D03*
D14*
X+1097280Y+4803006D03*
X+2113280Y+4803006D03*
D15*
X-1968500Y+2547620D02*
X+3992260Y+2547620D01*
X+3992260Y+8282940D01*
X-1968500Y+8282940D01*
X-1968500Y+2547620D01*
M02*
