G04 PROTEUS GERBER X2 FILE*
%TF.GenerationSoftware,Labcenter,Proteus,8.5-SP0-Build22067*%
%TF.CreationDate,2018-02-20T23:22:57+00:00*%
%TF.FileFunction,Plated,1,16,PTH*%
%TF.FilePolarity,Positive*%
%TF.Part,Single*%
%FSLAX45Y45*%
%MOMM*%
G01*
%TA.AperFunction,ComponentDrill*%
%ADD16C,0.762000*%
%ADD17C,1.000000*%
%ADD18C,1.016000*%
D16*
X+1869440Y+5435600D03*
X-416560Y+5435600D03*
X+599440Y+7735600D03*
X+3139440Y+7735600D03*
X+1615440Y+7735600D03*
X+345440Y+7735600D03*
X+1615440Y+5435600D03*
X-162560Y+5435600D03*
X-162560Y+7735600D03*
X+853440Y+7735600D03*
X+2377440Y+5435600D03*
X+91440Y+5435600D03*
X+2123440Y+5435600D03*
X+345440Y+5435600D03*
X+2631440Y+5435600D03*
X+2885440Y+5435600D03*
X+2123440Y+7735600D03*
X+2377440Y+7735600D03*
X+1107440Y+5435600D03*
X+853440Y+5435600D03*
X+1361440Y+5435600D03*
X+599440Y+5435600D03*
X+3139440Y+5435600D03*
X+1361440Y+7735600D03*
X+1869440Y+7735600D03*
X+2631440Y+7735600D03*
X+2885440Y+7735600D03*
X+91440Y+7735600D03*
X+1107440Y+7735600D03*
X-416560Y+7735600D03*
D17*
X+1216660Y+3878580D03*
X+1470660Y+3878580D03*
X+1724660Y+3878580D03*
X+1978660Y+3878580D03*
X+2232660Y+3878580D03*
X+2486660Y+3878580D03*
X+2740660Y+3878580D03*
X+2994660Y+3878580D03*
D18*
X-759460Y+2994660D03*
X-505460Y+2994660D03*
D16*
X+2664460Y+7073900D03*
X+2664460Y+6057900D03*
D18*
X-1582420Y+2981960D03*
X-1328420Y+2981960D03*
D16*
X+1097280Y+4803006D03*
X+2113280Y+4803006D03*
M02*
